<svg xmlns="http://www.w3.org/2000/svg" version="1.1" viewBox="18.96 198.76 458.14 97.9">
<path d="M0 0 C4.75 1.875 4.75 1.875 7 3 C7 3.66 7 4.32 7 5 C7.515625 5.226875 8.03125 5.45375 8.5625 5.6875 C11.89547005 7.48217618 15.14703671 9.49965015 18 12 C18 12.66 18 13.32 18 14 C18.53625 14.2475 19.0725 14.495 19.625 14.75 C22.5823982 16.30652537 25.29724051 18.03435673 28 20 C28 20.66 28 21.32 28 22 C28.598125 22.28875 29.19625 22.5775 29.8125 22.875 C32 24 32 24 35 26 C35 26.66 35 27.32 35 28 C35.928125 28.4640625 35.928125 28.4640625 36.875 28.9375 C38.25 29.625 39.625 30.3125 41 31 C41 31.66 41 32.32 41 33 C41.53109375 33.2371875 42.0621875 33.474375 42.609375 33.71875 C45.69742595 35.37378384 48.4528472 37.40548128 51.25 39.5 C51.80429688 39.90347656 52.35859375 40.30695313 52.9296875 40.72265625 C54.32569165 41.76450171 55.66802392 42.87745412 57 44 C57 44.66 57 45.32 57 46 C57.55171875 46.24492187 58.1034375 46.48984375 58.671875 46.7421875 C61.47639491 48.25738114 63.78103123 50.11084126 66.25 52.125 C67.14203125 52.84945312 68.0340625 53.57390625 68.953125 54.3203125 C69.62859375 54.87460937 70.3040625 55.42890625 71 56 C69.96837428 58.94750207 69.05842248 59.96158039 66.41015625 61.703125 C53.84295234 67.51014104 40.0508755 68.08062794 26.70703125 64.10546875 C16.0227989 59.74235511 5.8105299 51.75164517 1 41 C1 39.68 1 38.36 1 37 C0.34 37 -0.32 37 -1 37 C-4.48036548 24.41562764 -5.78010358 12.10697372 0 0 Z M7 19 C7.86630454 27.69291797 10.00309823 33.84411078 15 41 C15.66 41.99 16.32 42.98 17 44 C17.66 44 18.32 44 19 44 C19 44.66 19 45.32 19 46 C28.34385597 53.89036726 37.99079173 55.68733147 50 55 C48.71937515 53.2925002 47.38232443 51.62626404 46 50 C45.34 50 44.68 50 44 50 C44 49.34 44 48.68 44 48 C42.68 47.67 41.36 47.34 40 47 C40 46.34 40 45.68 40 45 C39.34 45 38.68 45 38 45 C38 44.34 38 43.68 38 43 C36.28502228 41.41173778 36.28502228 41.41173778 34.125 39.875 C33.40570313 39.33617187 32.68640625 38.79734375 31.9453125 38.2421875 C30.10373994 36.82060368 30.10373994 36.82060368 28 37 C28 36.34 28 35.68 28 35 C25.93095035 33.22610722 23.86238831 31.5715553 21.6875 29.9375 C21.09259766 29.47794922 20.49769531 29.01839844 19.88476562 28.54492188 C17.27844866 26.56179131 15.12789942 25.04263314 12 24 C12 23.34 12 22.68 12 22 C9.53673288 20.3553326 9.53673288 20.3553326 7 19 Z " fill="#0B2F76" transform="translate(23,230)"/>
<path d="M0 0 C9.37076958 8.27078326 17.39676704 17.97398879 18.4934082 30.98242188 C18.87074282 44.80098687 17.91535347 55.94160973 10.31640625 67.8828125 C9.65640625 67.8828125 8.99640625 67.8828125 8.31640625 67.8828125 C8.08953125 68.4809375 7.86265625 69.0790625 7.62890625 69.6953125 C5.97829492 72.44633138 4.11919815 73.40765887 1.31640625 74.8828125 C-0.66359375 73.2328125 -2.64359375 71.5828125 -4.68359375 69.8828125 C-4.06239314 66.55227908 -2.84014905 64.43205012 -0.87109375 61.6953125 C0.19919268 60.09633036 1.26187179 58.49222669 2.31640625 56.8828125 C2.74050781 56.23828125 3.16460937 55.59375 3.6015625 54.9296875 C8.00295934 46.91567461 7.80777682 35.63524183 5.55078125 26.9296875 C4.62257448 24.76387169 3.59405002 22.85896048 2.31640625 20.8828125 C1.71828125 19.8309375 1.12015625 18.7790625 0.50390625 17.6953125 C-5.13709466 10.44259705 -13.41023238 4.23106717 -22.68359375 2.8828125 C-35.22909448 1.87305269 -43.95253664 4.01601572 -53.69921875 12 C-56.54992078 14.70479996 -58.58544174 17.56637867 -60.68359375 20.8828125 C-64.11898179 20.59653016 -65.51667753 20.0326091 -68.12109375 17.6953125 C-69.68359375 14.8828125 -69.68359375 14.8828125 -69.18359375 11.8828125 C-67.64252049 8.80066598 -66.0445466 6.3913249 -63.68359375 3.8828125 C-63.02359375 3.8828125 -62.36359375 3.8828125 -61.68359375 3.8828125 C-61.68359375 3.2228125 -61.68359375 2.5628125 -61.68359375 1.8828125 C-56.27182904 -2.1171875 -56.27182904 -2.1171875 -53.68359375 -2.1171875 C-53.68359375 -2.7771875 -53.68359375 -3.4371875 -53.68359375 -4.1171875 C-36.54951796 -12.83229766 -15.4083848 -12.15625118 0 0 Z " fill="#173878" transform="translate(96.68359375,209.1171875)"/>
<path d="M0 0 C3.3 0 6.6 0 10 0 C10.9584521 11.49818353 11.1222403 22.90536806 11.0625 34.4375 C11.05746829 36.15169138 11.05290837 37.86588421 11.04882812 39.58007812 C11.03797027 43.72008893 11.02080066 47.86002771 11 52 C9.57107422 51.96519531 9.57107422 51.96519531 8.11328125 51.9296875 C6.23189453 51.90261719 6.23189453 51.90261719 4.3125 51.875 C2.45044922 51.84019531 2.45044922 51.84019531 0.55078125 51.8046875 C-2.85405838 51.99197241 -4.91928875 52.6698138 -8 54 C-12.367264 53.68805257 -16.0191392 52.80948218 -20 51 C-20 50.34 -20 49.68 -20 49 C-21.32 48.34 -22.64 47.68 -24 47 C-24 46.34 -24 45.68 -24 45 C-24.66 45 -25.32 45 -26 45 C-29.19316032 35.42051905 -28.16462504 29.07293313 -24 20 C-23.34 20 -22.68 20 -22 20 C-22 19.34 -22 18.68 -22 18 C-16.60815871 15.24671934 -12.06204006 14.1753055 -6 15 C-4.35 15.66 -2.7 16.32 -1 17 C-0.67 11.39 -0.34 5.78 0 0 Z M-17 28 C-18.01661682 33.3723653 -17.93646935 37.55272919 -14.9375 42.1875 C-11.2104623 44.48716156 -9.30752863 44.76920154 -5 44 C-1.83651599 42.33821811 -1.83651599 42.33821811 0 39 C0.69081306 35.20333635 0.71791366 31.79385269 0 28 C-2.65686889 24.53801933 -4.21365437 24.11233509 -8.5 23.5 C-12.78634563 24.11233509 -14.34313111 24.53801933 -17 28 Z " fill="#062A72" transform="translate(253,222)"/>
<path d="M0 0 C1.62580966 0.11398665 3.25067157 0.24155659 4.875 0.375 C5.77992188 0.44460937 6.68484375 0.51421875 7.6171875 0.5859375 C10 1 10 1 12 3 C12.70654297 4.95874023 12.70654297 4.95874023 13.3671875 7.37109375 C15.07602275 13.3455687 17.07842707 19.19640726 19.125 25.0625 C19.48464844 26.10599609 19.84429687 27.14949219 20.21484375 28.22460938 C20.55902344 29.21396484 20.90320313 30.20332031 21.2578125 31.22265625 C21.5686377 32.11734619 21.87946289 33.01203613 22.19970703 33.93383789 C22.82400507 35.9586637 22.82400507 35.9586637 24 37 C24.35827881 35.94498291 24.71655762 34.88996582 25.08569336 33.80297852 C26.41150843 29.90141326 27.74117143 26.00116873 29.07202148 22.10131836 C29.64827409 20.41092321 30.22347232 18.72016825 30.79760742 17.02905273 C31.62143664 14.60305696 32.44900745 12.17836623 33.27734375 9.75390625 C33.53466782 8.99348526 33.79199188 8.23306427 34.05711365 7.44960022 C35.88612829 2.11387171 35.88612829 2.11387171 37 1 C38.68608966 0.92794489 40.37500659 0.91613932 42.0625 0.9375 C42.98160156 0.94652344 43.90070313 0.95554688 44.84765625 0.96484375 C45.55792969 0.97644531 46.26820313 0.98804688 47 1 C45.69151646 7.43284026 43.92546262 13.45969182 41.6875 19.625 C41.06019727 21.3811533 40.43390436 23.13766763 39.80859375 24.89453125 C39.50163574 25.7551416 39.19467773 26.61575195 38.87841797 27.50244141 C37.21878983 32.22117288 35.68158747 36.97974573 34.140625 41.73828125 C32.91371515 45.24673922 31.4994739 48.60033074 30 52 C26.04 52 22.08 52 18 52 C15.10147918 45.88960475 12.50966633 40.02341863 10.7734375 33.484375 C9.97218592 30.91065779 8.93222324 28.49653969 7.8515625 26.02978516 C6.16954485 22.02052633 4.75545923 17.91243217 3.3125 13.8125 C2.99216797 12.92369141 2.67183594 12.03488281 2.34179688 11.11914062 C2.03951172 10.26126953 1.73722656 9.40339844 1.42578125 8.51953125 C1.15161377 7.74714111 0.87744629 6.97475098 0.5949707 6.17895508 C0 4 0 4 0 0 Z " fill="#0F3073" transform="translate(300,222)"/>
<path d="M0 0 C4.59047821 2.63527453 7.99478431 6.17706863 10.375 10.9375 C10.49988834 13.55434643 10.56016963 16.13298918 10.5625 18.75 C10.57474609 19.46220703 10.58699219 20.17441406 10.59960938 20.90820312 C10.61107389 25.0392489 10.22022492 28.22517002 8.375 31.9375 C7.715 31.9375 7.055 31.9375 6.375 31.9375 C6.375 32.5975 6.375 33.2575 6.375 33.9375 C5.715 33.9375 5.055 33.9375 4.375 33.9375 C4.375 34.5975 4.375 35.2575 4.375 35.9375 C-1.45871294 38.32770183 -6.47282373 40.01562061 -12.625 37.9375 C-18.97551109 34.98304037 -22.4830132 31.64552072 -24.96875 25.0859375 C-25.1853125 24.37695312 -25.401875 23.66796875 -25.625 22.9375 C-25.84542969 22.2878125 -26.06585938 21.638125 -26.29296875 20.96875 C-27.14446491 15.75959701 -24.21500886 10.11751772 -21.9375 5.5625 C-15.87044655 -1.32442554 -8.64376929 -2.53351859 0 0 Z M-14.625 11.9375 C-12.7621051 14.23810534 -12.7621051 14.23810534 -9.8046875 14.1328125 C-8.16886719 14.09800781 -8.16886719 14.09800781 -6.5 14.0625 C-4.85644531 14.03542969 -4.85644531 14.03542969 -3.1796875 14.0078125 C-2.33664062 13.98460937 -1.49359375 13.96140625 -0.625 13.9375 C-0.35859337 11.02826108 -0.35859337 11.02826108 -1.6875 9.25 C-6.66421951 5.87867388 -11.18134225 7.52961808 -14.625 11.9375 Z M-15.625 21.9375 C-14.12811757 26.79923708 -14.12811757 26.79923708 -11.4375 28.8125 C-7.81243997 30.26252401 -5.38803616 29.74913525 -1.625 28.9375 C-1.625 28.2775 -1.625 27.6175 -1.625 26.9375 C-0.51125 26.855 0.6025 26.7725 1.75 26.6875 C2.94625 26.44 4.1425 26.1925 5.375 25.9375 C6.035 24.6175 6.695 23.2975 7.375 21.9375 C-0.215 21.9375 -7.805 21.9375 -15.625 21.9375 Z " fill="#062A72" transform="translate(368.625,237.0625)"/>
<path d="M0 0 C4.63887984 2.61464137 8.04312519 6.14875038 10.4375 10.9375 C10.50783769 12.81129605 10.5218022 14.68751102 10.5 16.5625 C10.49097656 17.56539062 10.48195313 18.56828125 10.47265625 19.6015625 C10.46105469 20.37242187 10.44945312 21.14328125 10.4375 21.9375 C7.08658229 22.69113052 4.00640188 23.05729937 0.57421875 23.03515625 C-0.75512695 23.03032227 -0.75512695 23.03032227 -2.11132812 23.02539062 C-3.02333984 23.01701172 -3.93535156 23.00863281 -4.875 23 C-5.80634766 22.99548828 -6.73769531 22.99097656 -7.69726562 22.98632812 C-9.98574373 22.97459234 -12.27408808 22.95817363 -14.5625 22.9375 C-13.20830878 25.94248763 -13.20830878 25.94248763 -10.875 28.1875 C-7.72704282 29.20845909 -4.84706632 29.06382947 -1.5625 28.9375 C-1.2325 27.9475 -0.9025 26.9575 -0.5625 25.9375 C1.50390625 25.20703125 1.50390625 25.20703125 4 24.75 C4.82628906 24.59144531 5.65257812 24.43289063 6.50390625 24.26953125 C7.14199219 24.15996094 7.78007812 24.05039062 8.4375 23.9375 C9.35524783 26.91536707 9.47201217 27.82706106 8.5 30.9375 C5.44008477 35.38828579 1.48507434 36.93967487 -3.54296875 38.5859375 C-8.55699802 39.45878592 -13.50377463 37.49682661 -17.875 35.1875 C-22.54740361 31.27572023 -24.65743522 27.91415882 -25.3125 21.875 C-25.42677314 20.2310251 -25.51029352 18.58461453 -25.5625 16.9375 C-25.61019531 16.09445313 -25.65789062 15.25140625 -25.70703125 14.3828125 C-25.45616488 10.13842471 -23.24436445 7.13433593 -20.5625 3.9375 C-14.19679838 -0.93776382 -7.69670348 -2.29550806 0 0 Z M-11.4375 8.125 C-13.81629132 9.83791473 -13.81629132 9.83791473 -14.5625 12.9375 C-11.67834117 14.37957941 -9.14528472 14.03144887 -5.9375 14 C-4.15472656 13.98646484 -4.15472656 13.98646484 -2.3359375 13.97265625 C-0.96308594 13.95525391 -0.96308594 13.95525391 0.4375 13.9375 C-0.32654813 11.46123145 -0.32654813 11.46123145 -1.5625 8.9375 C-5.45072761 7.17679316 -7.43186641 6.47049917 -11.4375 8.125 Z " fill="#022871" transform="translate(292.5625,237.0625)"/>
<path d="M0 0 C4.01213555 4.01213555 4.89287012 7.29871434 5.11352539 12.86254883 C5.10828857 13.88372803 5.10305176 14.90490723 5.09765625 15.95703125 C5.09443359 17.06884766 5.09121094 18.18066406 5.08789062 19.32617188 C5.07532227 21.0519043 5.07532227 21.0519043 5.0625 22.8125 C5.05798828 23.98232422 5.05347656 25.15214844 5.04882812 26.35742188 C5.0370693 29.23833358 5.02063426 32.11914044 5 35 C0.66666667 35 -3.66666667 35 -8 35 C-8.99 35.495 -8.99 35.495 -10 36 C-11.78859511 36.12207871 -13.58228381 36.17548448 -15.375 36.1875 C-16.33148438 36.20167969 -17.28796875 36.21585937 -18.2734375 36.23046875 C-21.0815321 35.99310832 -22.65276898 35.52491948 -25 34 C-28.44699711 29.24552123 -28.08473315 25.52095777 -27.32421875 19.9765625 C-27.21722656 19.32429688 -27.11023438 18.67203125 -27 18 C-26.34 18 -25.68 18 -25 18 C-25 17.34 -25 16.68 -25 16 C-19.13900546 12.1484893 -12.85358862 12.29488734 -6 12 C-6.49756092 9.24358584 -6.49756092 9.24358584 -8 7 C-10.33297433 6.95907063 -12.66705225 6.95758277 -15 7 C-15.66 8.32 -16.32 9.64 -17 11 C-19.97 11 -22.94 11 -26 11 C-26.33 10.34 -26.66 9.68 -27 9 C-24.17647059 1.23529412 -24.17647059 1.23529412 -21 -1 C-13.60203111 -4.26886997 -6.98917676 -3.89781012 0 0 Z M-18 22 C-17.42547254 25.93075644 -17.42547254 25.93075644 -15 29 C-12.62875402 29.58488562 -12.62875402 29.58488562 -10 29 C-7.10387764 26.85393478 -7.10387764 26.85393478 -5 24 C-5 22.68 -5 21.36 -5 20 C-9.82360189 19.80705592 -13.49646738 20.24252386 -18 22 Z " fill="#173575" transform="translate(217,239)"/>
<path d="M0 0 C0.4846875 0.28875 0.969375 0.5775 1.46875 0.875 C1.46875 1.535 1.46875 2.195 1.46875 2.875 C2.12875 2.875 2.78875 2.875 3.46875 2.875 C6.0602762 8.81391422 6.87243295 13.41607286 6.46875 19.875 C3.06573245 20.66153402 0.08883956 20.95616649 -3.39453125 20.75390625 C-4.28076172 20.70556641 -5.16699219 20.65722656 -6.08007812 20.60742188 C-6.99208984 20.55134766 -7.90410156 20.49527344 -8.84375 20.4375 C-9.77509766 20.38529297 -10.70644531 20.33308594 -11.66601562 20.27929688 C-13.95481353 20.1501852 -16.24311186 20.01524585 -18.53125 19.875 C-17.23040256 22.87285437 -17.23040256 22.87285437 -15.53125 25.875 C-12.07453001 27.07733739 -10.20839756 27.08566813 -6.71875 26 C-4.61153702 25.05709621 -4.61153702 25.05709621 -3.53125 23.875 C-0.87661879 23.42040142 1.79064138 23.17256762 4.46875 22.875 C4.96375 25.35 4.96375 25.35 5.46875 27.875 C4.80875 27.875 4.14875 27.875 3.46875 27.875 C3.448125 28.4525 3.4275 29.03 3.40625 29.625 C1.90770402 33.22151035 -1.09690644 34.46007703 -4.53125 35.875 C-10.3536941 37.72920634 -14.27316804 36.56108265 -19.6484375 33.8828125 C-20.26976562 33.55023438 -20.89109375 33.21765625 -21.53125 32.875 C-22.19125 32.545 -22.85125 32.215 -23.53125 31.875 C-23.53125 31.215 -23.53125 30.555 -23.53125 29.875 C-24.19125 29.875 -24.85125 29.875 -25.53125 29.875 C-28.98643187 22.90531982 -30.36271873 17.53266273 -28.53125 9.875 C-26.39892432 3.92693363 -22.63958651 0.59276491 -17.15625 -2.4375 C-10.39632874 -4.20795557 -5.96373025 -3.30298906 0 0 Z M-16.96875 7.875 C-17.484375 8.535 -18 9.195 -18.53125 9.875 C-18.20125 10.535 -17.87125 11.195 -17.53125 11.875 C-12.91125 11.875 -8.29125 11.875 -3.53125 11.875 C-4.86688616 6.93036365 -4.86688616 6.93036365 -7.53125 5.875 C-12.67604578 5.34540292 -12.67604578 5.34540292 -16.96875 7.875 Z " fill="#09296C" transform="translate(470.53125,239.125)"/>
<path d="M0 0 C0 0.66 0 1.32 0 2 C0.639375 2.185625 1.27875 2.37125 1.9375 2.5625 C4 4 4 4 4.75 7.625 C4.87375 9.295625 4.87375 9.295625 5 11 C3.54257537 11.08096803 2.08387193 11.13917774 0.625 11.1875 C-0.18710937 11.22230469 -0.99921875 11.25710937 -1.8359375 11.29296875 C-2.55007813 11.19628906 -3.26421875 11.09960938 -4 11 C-4.66 10.01 -5.32 9.02 -6 8 C-10.09246775 6.87735026 -10.09246775 6.87735026 -14 8 C-14.65213292 10.02463255 -14.65213292 10.02463255 -15 12 C-14.21496094 12.10957031 -13.42992187 12.21914062 -12.62109375 12.33203125 C1.88902795 14.52190238 1.88902795 14.52190238 5.4375 18.6875 C6.49979729 23.05472219 6.68124703 27.29688243 5 31.5 C4.67 31.995 4.34 32.49 4 33 C3.34 33 2.68 33 2 33 C2 33.66 2 34.32 2 35 C-3.28204157 37.2637321 -8.17959 39.18584054 -14 38 C-18.64376025 36.05454025 -22.17916828 34.23124758 -25 30 C-25.125 26.8125 -25.125 26.8125 -25 24 C-20.94568308 22.84162374 -18.78187881 23.16308743 -15 25 C-15 25.99 -15 26.98 -15 28 C-13.741875 28.185625 -12.48375 28.37125 -11.1875 28.5625 C-10.47980469 28.66691406 -9.77210938 28.77132813 -9.04296875 28.87890625 C-6.7974658 29.13904799 -6.7974658 29.13904799 -4 28 C-4 27.01 -4 26.02 -4 25 C-6.97545461 23.01636359 -8.39095161 22.61436264 -11.8125 22.0625 C-17.40529344 20.99448843 -21.56695036 20.08023334 -24.9375 15.1875 C-26.18732557 11.43802329 -26.24767935 9.74303804 -25 6 C-18.84452033 -3.14528408 -9.70804431 -3.88321772 0 0 Z " fill="#022771" transform="translate(433,238)"/>
<path d="M0 0 C13.2 0 26.4 0 40 0 C40 2.97 40 5.94 40 9 C35.05 9 30.1 9 25 9 C25.24363281 10.82144531 25.24363281 10.82144531 25.4921875 12.6796875 C26.17295564 18.82584504 26.14608271 24.94776495 26.125 31.125 C26.13080078 32.83623047 26.13080078 32.83623047 26.13671875 34.58203125 C26.1302413 40.15911517 26.0027222 45.50890222 25 51 C21.7 51 18.4 51 15 51 C13.67660881 47.02982643 13.98787069 43.30326443 14.12109375 39.17578125 C14.14470474 38.31438034 14.16831573 37.45297943 14.19264221 36.56547546 C14.2692128 33.81431325 14.3532656 31.0634372 14.4375 28.3125 C14.4907273 26.44727963 14.54346765 24.58204529 14.59570312 22.71679688 C14.72481904 18.14435004 14.86064577 13.57214579 15 9 C10.05 9 5.1 9 0 9 C-1 2 -1 2 0 0 Z " fill="#244488" transform="translate(127,223)"/>
<path d="M0 0 C-2.0625 1.1875 -2.0625 1.1875 -5 2 C-7.3570226 1.05719096 -9.69034152 0.05352843 -12 -1 C-15.29285101 -1.25269417 -15.29285101 -1.25269417 -18 -1 C-17.505 -0.01 -17.505 -0.01 -17 1 C-20.75 2.125 -20.75 2.125 -23 1 C-23 2.32 -23 3.64 -23 5 C-19.37114676 5.15149298 -19.37114676 5.15149298 -16 4 C-13.375 5.4375 -13.375 5.4375 -11 7 C-13.87570377 8.43785189 -16.29850252 7.94125588 -19.5 7.8125 C-30.38383971 7.76803079 -38.13797612 11.54036317 -46 19 C-47.88297016 21.26132397 -49.42187577 23.50554557 -51 26 C-54.43538804 25.71371766 -55.83308378 25.1497966 -58.4375 22.8125 C-60 20 -60 20 -59.5 17 C-57.95892674 13.91785348 -56.36095285 11.5085124 -54 9 C-53.34 9 -52.68 9 -52 9 C-52 8.34 -52 7.68 -52 7 C-46.58823529 3 -46.58823529 3 -44 3 C-44 2.34 -44 1.68 -44 1 C-31.13745301 -5.54243131 -12.75585193 -8.50390128 0 0 Z " fill="#163779" transform="translate(87,204)"/>
<path d="M0 0 C0.66 1.32 1.32 2.64 2 4 C2.38929688 3.52046875 2.77859375 3.0409375 3.1796875 2.546875 C5.52228893 0.55616649 7.08756881 0.4802426 10.125 0.25 C11.01445312 0.17265625 11.90390625 0.0953125 12.8203125 0.015625 C13.53960937 0.01046875 14.25890625 0.0053125 15 0 C16 1 16 1 16.1328125 3.03125 C16.13023437 3.8459375 16.12765625 4.660625 16.125 5.5 C16.12886719 6.72203125 16.12886719 6.72203125 16.1328125 7.96875 C16 10 16 10 15 11 C11.01776878 11.78273411 7.00946311 12.36692688 3 13 C2.67 20.92 2.34 28.84 2 37 C-1.3 37 -4.6 37 -8 37 C-8.76407159 33.94371364 -9.12786876 31.94455211 -9.1328125 28.91015625 C-9.13474609 28.1313208 -9.13667969 27.35248535 -9.13867188 26.55004883 C-9.13416016 25.72915771 -9.12964844 24.9082666 -9.125 24.0625 C-9.12306641 23.22162842 -9.12113281 22.38075684 -9.11914062 21.5144043 C-9.07195344 14.63883761 -8.68803197 7.84346089 -8 1 C-5.36 0.67 -2.72 0.34 0 0 Z " fill="#13306F" transform="translate(391,237)"/>
<path d="M0 0 C1.8871875 0.0309375 1.8871875 0.0309375 3.8125 0.0625 C4.1425 3.3625 4.4725 6.6625 4.8125 10.0625 C1.05273438 10.79492188 1.05273438 10.79492188 -2.70703125 11.52734375 C-5.30147171 12.03991153 -5.30147171 12.03991153 -8.1875 13.0625 C-8.5175 20.9825 -8.8475 28.9025 -9.1875 37.0625 C-12.4875 37.0625 -15.7875 37.0625 -19.1875 37.0625 C-19.1875 25.1825 -19.1875 13.3025 -19.1875 1.0625 C-15.1875 1.0625 -11.1875 1.0625 -7.1875 1.0625 C-4.43671116 0.14557039 -2.82801087 -0.04636083 0 0 Z " fill="#13306E" transform="translate(184.1875,236.9375)"/>
<path d="M0 0 C0.99 0 1.98 0 3 0 C3.66 0.66 4.32 1.32 5 2 C5.886875 2.4125 6.77375 2.825 7.6875 3.25 C11.65120877 5.34403482 14.70795029 7.99040426 18 11 C16.99877183 13.61859676 16.33393563 14.79889378 13.8984375 16.265625 C8.25388436 18.46752499 4.03888688 19.31235622 -2 19 C-3.33568021 19.32380126 -4.66923011 19.65657551 -6 20 C-11.45627477 20.32095734 -16.81779487 19.80153912 -22 18 C-22.33 17.34 -22.66 16.68 -23 16 C-23.66 16 -24.32 16 -25 16 C-24.979375 15.071875 -24.95875 14.14375 -24.9375 13.1875 C-24.84230396 9.97713989 -24.84230396 9.97713989 -26 7 C-18.25 7.875 -18.25 7.875 -16 9 C-13.795636 9.22950319 -11.58607827 9.41075933 -9.375 9.5625 C-8.18648437 9.64628906 -6.99796875 9.73007812 -5.7734375 9.81640625 C-4.85820313 9.87699219 -3.94296875 9.93757813 -3 10 C-3.66 7.69 -4.32 5.38 -5 3 C-3.35 2.67 -1.7 2.34 0 2 C0 1.34 0 0.68 0 0 Z " fill="#062A71" transform="translate(76,275)"/>
<path d="M0 0 C0 0.66 0 1.32 0 2 C-8.42857143 4.28571429 -8.42857143 4.28571429 -13 4 C-11.68 4.66 -10.36 5.32 -9 6 C-9.33 6.66 -9.66 7.32 -10 8 C-8.35 8 -6.7 8 -5 8 C-5.804375 8.61875 -6.60875 9.2375 -7.4375 9.875 C-10.03874519 11.74164041 -10.03874519 11.74164041 -11 14 C-5.72 14 -0.44 14 5 14 C5 14.66 5 15.32 5 16 C-1.93 16 -8.86 16 -16 16 C-16.33 16.99 -16.66 17.98 -17 19 C-17.33 19 -17.66 19 -18 19 C-18 17.02 -18 15.04 -18 13 C-19.3089187 15.13995212 -19.3089187 15.13995212 -18.5 18.375 C-18 22 -18 22 -18.625 24.25 C-18.74875 24.8275 -18.8725 25.405 -19 26 C-17.64555699 27.77190909 -17.64555699 27.77190909 -16 29 C-15.113125 28.608125 -14.22625 28.21625 -13.3125 27.8125 C-10 27 -10 27 -7.5625 28.375 C-6.716875 28.91125 -5.87125 29.4475 -5 30 C-1.29106092 30.25099867 -1.29106092 30.25099867 2 30 C2.33 29.01 2.66 28.02 3 27 C5.06640625 26.26953125 5.06640625 26.26953125 7.5625 25.8125 C8.38878906 25.65394531 9.21507812 25.49539063 10.06640625 25.33203125 C10.70449219 25.22246094 11.34257812 25.11289062 12 25 C12.91774783 27.97786707 13.03451217 28.88956106 12.0625 32 C9.00258477 36.45078579 5.04757434 38.00217487 0.01953125 39.6484375 C-4.99449802 40.52128592 -9.94127463 38.55932661 -14.3125 36.25 C-18.98490361 32.33822023 -21.09493522 28.97665882 -21.75 22.9375 C-21.86427314 21.2935251 -21.94779352 19.64711453 -22 18 C-22.04769531 17.15695313 -22.09539062 16.31390625 -22.14453125 15.4453125 C-21.89366488 11.20092471 -19.68186445 8.19683593 -17 5 C-11.62202631 0.88120177 -6.65718827 -0.12560733 0 0 Z " fill="#062465" transform="translate(289,236)"/>
<path d="M0 0 C0.33 0 0.66 0 1 0 C1.14695312 0.68964844 1.29390625 1.37929687 1.4453125 2.08984375 C2.94292035 8.36430423 4.94056701 13.03925439 8.79296875 18.22265625 C10 20 10 20 10 22 C10.66 22 11.32 22 12 22 C12 22.66 12 23.32 12 24 C12.721875 24.2475 13.44375 24.495 14.1875 24.75 C17.29567538 26.13141128 19.52723148 27.66853254 22 30 C22 33.11227195 21.54372951 35.94152152 21 39 C22.485 38.505 22.485 38.505 24 38 C24 38.99 24 39.98 24 41 C26.58296017 41.19522373 29.16604079 41.38144403 31.75 41.5625 C32.84441406 41.64661133 32.84441406 41.64661133 33.9609375 41.73242188 C37.56575384 41.97820481 40.53252761 41.94209219 44 41 C45.41534778 40.93543121 46.83337689 40.91388961 48.25 40.9375 C50.10625 40.9684375 50.10625 40.9684375 52 41 C50.40169544 42.90962155 49.49801951 43.90266121 47.01391602 44.38818359 C46.26811279 44.39156738 45.52230957 44.39495117 44.75390625 44.3984375 C43.92238037 44.40480225 43.09085449 44.41116699 42.23413086 44.41772461 C41.35249268 44.40362549 40.47085449 44.38952637 39.5625 44.375 C38.65959229 44.36412354 37.75668457 44.35324707 36.82641602 44.34204102 C22.95505256 44.01268779 12.34741635 40.21087137 2.125 30.5625 C-1.6895395 26.49059398 -6 21.75740587 -6 16 C-4.68 16 -3.36 16 -2 16 C0.14336161 12.5233662 0.21277626 9.78770805 0.125 5.75 C0.10695313 4.67234375 0.08890625 3.5946875 0.0703125 2.484375 C0.04710937 1.66453125 0.02390625 0.8446875 0 0 Z " fill="#1B3B7C" transform="translate(30,252)"/>
<path d="M0 0 C4.75 1.875 4.75 1.875 7 3 C7 3.66 7 4.32 7 5 C7.556875 5.2475 8.11375 5.495 8.6875 5.75 C11.59892283 7.32374207 13.73691592 8.54293729 16 11 C16.24759025 13.97108299 15.7187049 16.02935309 15 19 C14.34 19.66 13.68 20.32 13 21 C10.375 20.625 10.375 20.625 8 20 C8.03480469 20.96421875 8.06960937 21.9284375 8.10546875 22.921875 C8.13253906 24.18515625 8.15960938 25.4484375 8.1875 26.75 C8.22230469 28.00296875 8.25710937 29.2559375 8.29296875 30.546875 C7.98802939 34.14109357 7.45605371 35.44725126 5 38 C3.02 37.67 1.04 37.34 -1 37 C-4.48036548 24.41562764 -5.78010358 12.10697372 0 0 Z " fill="#0C3075" transform="translate(23,230)"/>
<path d="M0 0 C1.37478516 0.01740234 1.37478516 0.01740234 2.77734375 0.03515625 C3.69644531 0.04417969 4.61554688 0.05320313 5.5625 0.0625 C6.27277344 0.07410156 6.98304688 0.08570313 7.71484375 0.09765625 C6.38074404 6.67523243 4.55106991 12.85068683 2.27734375 19.16015625 C1.97763672 20.00642578 1.67792969 20.85269531 1.36914062 21.72460938 C-0.45985488 26.87039499 -2.35405343 31.98938733 -4.28515625 37.09765625 C-5.27515625 36.76765625 -6.26515625 36.43765625 -7.28515625 36.09765625 C-6.62515625 34.44765625 -5.96515625 32.79765625 -5.28515625 31.09765625 C-6.93515625 31.09765625 -8.58515625 31.09765625 -10.28515625 31.09765625 C-11.27515625 34.06765625 -12.26515625 37.03765625 -13.28515625 40.09765625 C-14.27515625 39.76765625 -15.26515625 39.43765625 -16.28515625 39.09765625 C-16.28515625 36.09765625 -16.28515625 36.09765625 -14.28515625 34.09765625 C-13.36112011 31.64520039 -12.51812071 29.21159371 -11.71875 26.71875 C-11.47979507 25.99148209 -11.24084015 25.26421417 -10.99464417 24.51490784 C-10.23160666 22.19014564 -9.47663679 19.86287012 -8.72265625 17.53515625 C-7.96406936 15.20423435 -7.20376322 12.87390987 -6.43995667 10.54469299 C-5.96477105 9.09454494 -5.49279645 7.64334017 -5.02427673 6.19102478 C-3.04430857 0.13009866 -3.04430857 0.13009866 0 0 Z " fill="#07286F" transform="translate(339.28515625,222.90234375)"/>
<path d="M0 0 C2.9375 0.9375 2.9375 0.9375 4.3125 2.5 C5.44173766 6.90402688 5.63900426 11.18373935 3.9375 15.4375 C3.6075 15.9325 3.2775 16.4275 2.9375 16.9375 C2.2775 16.9375 1.6175 16.9375 0.9375 16.9375 C0.9375 17.5975 0.9375 18.2575 0.9375 18.9375 C-4.34454157 21.2012321 -9.24209 23.12334054 -15.0625 21.9375 C-19.70626025 19.99204025 -23.24166828 18.16874758 -26.0625 13.9375 C-26.1875 10.75 -26.1875 10.75 -26.0625 7.9375 C-22.00818308 6.77912374 -19.84437881 7.10058743 -16.0625 8.9375 C-16.0625 9.9275 -16.0625 10.9175 -16.0625 11.9375 C-14.804375 12.123125 -13.54625 12.30875 -12.25 12.5 C-11.54230469 12.60441406 -10.83460938 12.70882813 -10.10546875 12.81640625 C-7.8599658 13.07654799 -7.8599658 13.07654799 -5.0625 11.9375 C-5.31 10.82375 -5.31 10.82375 -5.5625 9.6875 C-6.625 3.84375 -6.625 3.84375 -4.9375 1.125 C-3.0625 -0.0625 -3.0625 -0.0625 0 0 Z " fill="#183877" transform="translate(434.0625,254.0625)"/>
<path d="M0 0 C10.2 -0.2 10.2 -0.2 15 3 C15.78890625 2.82726562 16.5778125 2.65453125 17.390625 2.4765625 C20.72236451 1.86807115 21.89750448 2.642444 24.75 4.375 C25.52859375 4.83648437 26.3071875 5.29796875 27.109375 5.7734375 C29 7 29 7 30 8 C30.07205511 9.68608966 30.08386068 11.37500659 30.0625 13.0625 C30.05347656 13.98160156 30.04445312 14.90070313 30.03515625 15.84765625 C30.02355469 16.55792969 30.01195312 17.26820313 30 18 C29.21625 17.731875 28.4325 17.46375 27.625 17.1875 C24.75931974 16.24874267 21.89701485 15.39396952 19 14.5625 C15.08214317 13.39535403 11.59995624 11.9636125 8 10 C6.03120677 8.93988057 4.03564133 7.92529151 2 7 C1.01 7.495 1.01 7.495 0 8 C-2.125 7.5625 -2.125 7.5625 -4 7 C-4 5.68 -4 4.36 -4 3 C-2.35 2.67 -0.7 2.34 1 2 C0.67 1.34 0.34 0.68 0 0 Z " fill="#062A73" transform="translate(68,202)"/>
<path d="M0 0 C0.4846875 0.28875 0.969375 0.5775 1.46875 0.875 C1.46875 1.535 1.46875 2.195 1.46875 2.875 C2.12875 2.875 2.78875 2.875 3.46875 2.875 C4.0032756 4.11920647 4.52083611 5.37070936 5.03125 6.625 C5.32128906 7.32109375 5.61132812 8.0171875 5.91015625 8.734375 C6.5561955 11.21010583 6.40918167 12.5110734 5.46875 14.875 C4.80875 15.205 4.14875 15.535 3.46875 15.875 C3.13875 14.885 2.80875 13.895 2.46875 12.875 C1.80875 13.205 1.14875 13.535 0.46875 13.875 C0.46875 13.215 0.46875 12.555 0.46875 11.875 C-0.52125 12.205 -1.51125 12.535 -2.53125 12.875 C-3.86650717 12.95473476 -5.20537083 12.98271338 -6.54296875 12.97265625 C-7.67895508 12.96782227 -7.67895508 12.96782227 -8.83789062 12.96289062 C-9.62357422 12.95451172 -10.40925781 12.94613281 -11.21875 12.9375 C-12.01603516 12.93298828 -12.81332031 12.92847656 -13.63476562 12.92382812 C-15.60029257 12.9120585 -17.56578085 12.89412348 -19.53125 12.875 C-15.79159036 10.38189357 -14.24054359 10.8146739 -9.84375 11.25 C-8.66425781 11.36085937 -7.48476563 11.47171875 -6.26953125 11.5859375 C-5.36589844 11.68132812 -4.46226562 11.77671875 -3.53125 11.875 C-4.8402072 8.75302522 -4.8402072 8.75302522 -7.53125 6.875 C-12.50208124 6.47696365 -12.50208124 6.47696365 -16.96875 8.375 C-17.484375 8.87 -18 9.365 -18.53125 9.875 C-18.53125 8.555 -18.53125 7.235 -18.53125 5.875 C-18.86125 5.215 -19.19125 4.555 -19.53125 3.875 C-21.18125 3.875 -22.83125 3.875 -24.53125 3.875 C-17.08420911 -4.21035868 -9.48404319 -5.25270084 0 0 Z " fill="#032365" transform="translate(470.53125,239.125)"/>
<path d="M0 0 C4.10812864 2.35837014 6.56635518 5.18235216 9.375 8.9375 C9.045 9.5975 8.715 10.2575 8.375 10.9375 C7.715 10.9375 7.055 10.9375 6.375 10.9375 C5.715 9.6175 5.055 8.2975 4.375 6.9375 C3.385 6.9375 2.395 6.9375 1.375 6.9375 C1.705 9.9075 2.035 12.8775 2.375 15.9375 C-1.81230624 16.98432656 -5.60356931 17.04905353 -9.875 17 C-10.62007813 16.99548828 -11.36515625 16.99097656 -12.1328125 16.98632812 C-13.9635764 16.97459246 -15.79429873 16.9566585 -17.625 16.9375 C-18.625 14.9375 -18.625 14.9375 -18.5 12.4375 C-17.625 9.9375 -17.625 9.9375 -15.0625 8.625 C-13.8559375 8.2846875 -13.8559375 8.2846875 -12.625 7.9375 C-13.85309091 6.29194301 -13.85309091 6.29194301 -15.625 4.9375 C-17.78799211 5.16507731 -17.78799211 5.16507731 -19.625 5.9375 C-19.955 7.2575 -20.285 8.5775 -20.625 9.9375 C-21.615 9.6075 -22.605 9.2775 -23.625 8.9375 C-18.47658867 -0.5012541 -10.18601307 -2.98555555 0 0 Z M-14.625 11.9375 C-12.7621051 14.23810534 -12.7621051 14.23810534 -9.8046875 14.1328125 C-8.16886719 14.09800781 -8.16886719 14.09800781 -6.5 14.0625 C-4.85644531 14.03542969 -4.85644531 14.03542969 -3.1796875 14.0078125 C-2.33664062 13.98460937 -1.49359375 13.96140625 -0.625 13.9375 C-0.35859337 11.02826108 -0.35859337 11.02826108 -1.6875 9.25 C-6.66421951 5.87867388 -11.18134225 7.52961808 -14.625 11.9375 Z " fill="#274382" transform="translate(368.625,237.0625)"/>
<path d="M0 0 C0.75732422 0.00644531 1.51464844 0.01289063 2.29492188 0.01953125 C3.08060547 0.03628906 3.86628906 0.05304688 4.67578125 0.0703125 C5.47306641 0.07933594 6.27035156 0.08835938 7.09179688 0.09765625 C9.05742025 0.12119665 11.022889 0.15706703 12.98828125 0.1953125 C11.27746351 3.98410978 9.77185606 5.34752015 5.98828125 7.1953125 C3.17578125 7.8828125 3.17578125 7.8828125 0.98828125 8.1953125 C1.15328125 8.9378125 1.31828125 9.6803125 1.48828125 10.4453125 C2.14417865 14.05274818 2.1520066 16.70413645 0.98828125 20.1953125 C-1.65171875 20.1953125 -4.29171875 20.1953125 -7.01171875 20.1953125 C-10.64098621 14.67882596 -10.03096121 10.40900749 -9.01171875 4.1953125 C-8.35171875 4.1953125 -7.69171875 4.1953125 -7.01171875 4.1953125 C-7.01171875 3.5353125 -7.01171875 2.8753125 -7.01171875 2.1953125 C-3.96490814 0.16410543 -3.41053551 -0.05128625 0 0 Z " fill="#1E3D7A" transform="translate(199.01171875,252.8046875)"/>
<path d="M0 0 C0.33 0 0.66 0 1 0 C1.14695312 0.68964844 1.29390625 1.37929687 1.4453125 2.08984375 C2.94292035 8.36430423 4.94056701 13.03925439 8.79296875 18.22265625 C10 20 10 20 10 22 C10.66 22 11.32 22 12 22 C12.33 23.32 12.66 24.64 13 26 C11.35 26.33 9.7 26.66 8 27 C8.66 28.98 9.32 30.96 10 33 C9.01 33 8.02 33 7 33 C6.67 32.34 6.34 31.68 6 31 C5.401875 30.896875 4.80375 30.79375 4.1875 30.6875 C0.96460595 29.67459044 -0.06523389 27.72076484 -2 25 C-3.11375 23.453125 -3.11375 23.453125 -4.25 21.875 C-6 19 -6 19 -6 16 C-4.68 16 -3.36 16 -2 16 C0.14336161 12.5233662 0.21277626 9.78770805 0.125 5.75 C0.10695313 4.67234375 0.08890625 3.5946875 0.0703125 2.484375 C0.04710937 1.66453125 0.02390625 0.8446875 0 0 Z " fill="#24407D" transform="translate(30,252)"/>
<path d="M0 0 C2.64 0 5.28 0 8 0 C6.02 0.99 6.02 0.99 4 2 C5.62366466 5.24732932 8.75387839 5.70155136 12 7 C10 8 10 8 6.625 7.875 C2.65723867 8.01181936 1.71622081 8.24366622 -1 11 C-1.91343896 13.94515652 -1.91343896 13.94515652 -2.25 17.1875 C-2.39953125 18.27417969 -2.5490625 19.36085938 -2.703125 20.48046875 C-2.80109375 21.31191406 -2.8990625 22.14335937 -3 23 C-3.66 23 -4.32 23 -5 23 C-5 23.66 -5 24.32 -5 25 C-5.66 25 -6.32 25 -7 25 C-7.33 25.66 -7.66 26.32 -8 27 C-10.28584898 20.44723293 -10.60594368 13.89598561 -11 7 C-10.01 7 -9.02 7 -8 7 C-8 6.01 -8 5.02 -8 4 C-4.77208445 1.8480563 -3.71599191 1.79913557 0 2 C0 1.34 0 0.68 0 0 Z " fill="#18387C" transform="translate(238,239)"/>
<path d="M0 0 C1.62580966 0.11398665 3.25067157 0.24155659 4.875 0.375 C5.77992188 0.44460937 6.68484375 0.51421875 7.6171875 0.5859375 C10 1 10 1 12 3 C12.7109375 4.9609375 12.7109375 4.9609375 13.375 7.375 C14.82549032 12.50405341 16.54221917 17.51000753 18.328125 22.53125 C19 25 19 25 18 27 C17.66226562 26.36191406 17.32453125 25.72382813 16.9765625 25.06640625 C16.53054688 24.24011719 16.08453125 23.41382813 15.625 22.5625 C15.18414062 21.73878906 14.74328125 20.91507813 14.2890625 20.06640625 C13.16581441 17.86533422 13.16581441 17.86533422 11 17 C11 14.69 11 12.38 11 10 C10.01 10 9.02 10 8 10 C8.33 11.65 8.66 13.3 9 15 C8.34 15 7.68 15 7 15 C7.474375 15.78375 7.94875 16.5675 8.4375 17.375 C11.26219879 22.12049397 11 25.53202319 11 31 C9 30 9 30 8.26977539 28.36108398 C8.04797607 27.66313721 7.82617676 26.96519043 7.59765625 26.24609375 C7.22157227 25.0869043 7.22157227 25.0869043 6.83789062 23.90429688 C6.45407227 22.68323242 6.45407227 22.68323242 6.0625 21.4375 C5.55489792 19.85237944 5.04579191 18.26773967 4.53515625 16.68359375 C4.28523926 15.90226074 4.03532227 15.12092773 3.77783203 14.31591797 C3.02200814 12.06552705 2.18029582 9.86781979 1.30859375 7.66015625 C0 4 0 4 0 0 Z " fill="#273C70" transform="translate(300,222)"/>
<path d="M0 0 C0 0.66 0 1.32 0 2 C-8.42857143 4.28571429 -8.42857143 4.28571429 -13 4 C-11.68 4.66 -10.36 5.32 -9 6 C-9.33 6.66 -9.66 7.32 -10 8 C-8.35 8 -6.7 8 -5 8 C-5.804375 8.61875 -6.60875 9.2375 -7.4375 9.875 C-10.03874519 11.74164041 -10.03874519 11.74164041 -11 14 C-5.72 14 -0.44 14 5 14 C5 14.66 5 15.32 5 16 C-1.93 16 -8.86 16 -16 16 C-16.33 16.99 -16.66 17.98 -17 19 C-17.33 19 -17.66 19 -18 19 C-18 17.02 -18 15.04 -18 13 C-19.3089187 15.13995212 -19.3089187 15.13995212 -18.5 18.375 C-18.05084405 21.63138062 -18.21785776 22.98316566 -19 26 C-18.34 26.66 -17.68 27.32 -17 28 C-16.28072705 30.31765729 -15.6090107 32.65095874 -15 35 C-19.45489125 31.15957651 -21.57081294 27.12560142 -22.359375 21.3828125 C-22.64880582 15.57811665 -21.99082863 11.41727028 -18.56640625 6.65625 C-13.3892453 1.18214465 -7.30396783 -0.13781071 0 0 Z " fill="#3D5890" transform="translate(289,236)"/>
<path d="M0 0 C0.33 0 0.66 0 1 0 C1.33 4.95 1.66 9.9 2 15 C2.33 15 2.66 15 3 15 C3 20.28 3 25.56 3 31 C-0.48307292 30.93489583 -3.96614583 30.86979167 -7.44921875 30.8046875 C-10.85405838 30.99197241 -12.91928875 31.6698138 -16 33 C-20.367264 32.68805257 -24.0191392 31.80948218 -28 30 C-27.34 29.34 -26.68 28.68 -26 28 C-23.1796875 28.2421875 -23.1796875 28.2421875 -19.875 28.875 C-18.77929688 29.07867187 -17.68359375 29.28234375 -16.5546875 29.4921875 C-15.71164063 29.65976562 -14.86859375 29.82734375 -14 30 C-14.33 29.01 -14.66 28.02 -15 27 C-14.34 27 -13.68 27 -13 27 C-13 26.34 -13 25.68 -13 25 C-11.68 25 -10.36 25 -9 25 C-8.67 24.34 -8.34 23.68 -8 23 C-5.4375 22.375 -5.4375 22.375 -3 22 C-2.67 22.66 -2.34 23.32 -2 24 C-1.34 24 -0.68 24 0 24 C0 16.08 0 8.16 0 0 Z " fill="#1B3A7F" transform="translate(261,243)"/>
<path d="M0 0 C2.33294775 -0.04241723 4.66702567 -0.04092937 7 0 C8 1 8 1 8.09765625 3.28515625 C8.08605469 4.20167969 8.07445312 5.11820313 8.0625 6.0625 C8.05347656 6.98160156 8.04445313 7.90070313 8.03515625 8.84765625 C8.02355469 9.55792969 8.01195312 10.26820313 8 11 C8.66 11.33 9.32 11.66 10 12 C10.1063689 24.04750524 10.14724086 35.99494383 9 48 C8.67 48 8.34 48 8 48 C7.98018066 47.15816162 7.96036133 46.31632324 7.93994141 45.44897461 C7.86140205 42.29720324 7.77469505 39.14578745 7.68261719 35.99438477 C7.64455921 34.63574737 7.60966779 33.27701715 7.578125 31.91821289 C7.53196786 29.95437081 7.47311503 27.99084037 7.4140625 26.02734375 C7.3826416 24.84906006 7.3512207 23.67077637 7.31884766 22.45678711 C6.97251571 18.70202905 6.14026416 15.58283003 5 12 C3.68 13.65 2.36 15.3 1 17 C-0.53266582 13.93466836 -0.10276471 10.73245728 -0.0625 7.375 C-0.05798828 6.66859375 -0.05347656 5.9621875 -0.04882812 5.234375 C-0.03703875 3.48954725 -0.01910324 1.744763 0 0 Z " fill="#0F2870" transform="translate(254,224)"/>
<path d="M0 0 C0.99 0.33 1.98 0.66 3 1 C3.08112454 3.58396679 3.14054748 6.16537568 3.1875 8.75 C3.22520508 9.84441406 3.22520508 9.84441406 3.26367188 10.9609375 C3.30981636 14.34486604 3.25324128 16.57858557 1.48828125 19.515625 C0.99714844 20.00546875 0.50601562 20.4953125 0 21 C-1.98 20.67 -3.96 20.34 -6 20 C-8.50413785 13.51870203 -7.82810601 7.81508864 -7 1 C-6.34 1.66 -5.68 2.32 -5 3 C-4.236875 2.484375 -3.47375 1.96875 -2.6875 1.4375 C-1.800625 0.963125 -0.91375 0.48875 0 0 Z " fill="#032975" transform="translate(28,247)"/>
<path d="M0 0 C0.33 3.3 0.66 6.6 1 10 C-2.75976562 10.73242188 -2.75976562 10.73242188 -6.51953125 11.46484375 C-9.11397171 11.97741153 -9.11397171 11.97741153 -12 13 C-12.33 13.99 -12.66 14.98 -13 16 C-13 15.34 -13 14.68 -13 14 C-13.66 14 -14.32 14 -15 14 C-14.814375 13.236875 -14.62875 12.47375 -14.4375 11.6875 C-13.77180827 8.91032625 -13.77180827 8.91032625 -15 6 C-14.34 6 -13.68 6 -13 6 C-13 4.68 -13 3.36 -13 2 C-8.50343896 -0.24828052 -4.92127034 -0.16682272 0 0 Z " fill="#294780" transform="translate(188,237)"/>
<path d="M0 0 C2 3 2 3 3 6 C2.01 6 1.02 6 0 6 C0.66 7.65 1.32 9.3 2 11 C3.98 10.34 5.96 9.68 8 9 C7.34309381 12.78239671 6.279869 16.21841526 4.9375 19.8125 C4.57527344 20.78832031 4.21304687 21.76414062 3.83984375 22.76953125 C3.56269531 23.50558594 3.28554688 24.24164063 3 25 C2.01 24.67 1.02 24.34 0 24 C0.66 22.35 1.32 20.7 2 19 C0.35 19 -1.3 19 -3 19 C-3.99 21.97 -4.98 24.94 -6 28 C-6.99 27.67 -7.98 27.34 -9 27 C-9 24 -9 24 -7 22 C-6.36260348 20.35336251 -5.79678899 18.67854231 -5.2734375 16.9921875 C-4.9640625 16.00605469 -4.6546875 15.01992187 -4.3359375 14.00390625 C-4.01882813 12.97136719 -3.70171875 11.93882812 -3.375 10.875 C-3.05015625 9.83472656 -2.7253125 8.79445312 -2.390625 7.72265625 C-1.5881802 5.15011263 -0.79156497 2.57590806 0 0 Z " fill="#25417C" transform="translate(332,235)"/>
<path d="M0 0 C6.40967041 -0.4006044 11.19175888 0.14682892 17 3 C19.25072437 5.90718564 19 7.1745918 19 11 C17.54257537 11.08096803 16.08387193 11.13917774 14.625 11.1875 C13.81289063 11.22230469 13.00078125 11.25710937 12.1640625 11.29296875 C11.44992187 11.19628906 10.73578125 11.09960938 10 11 C9.34 10.01 8.68 9.02 8 8 C5.82102508 6.99194445 5.82102508 6.99194445 3.375 6.3125 C2.55773437 6.06113281 1.74046875 5.80976563 0.8984375 5.55078125 C0.27195312 5.36902344 -0.35453125 5.18726563 -1 5 C-0.67 3.35 -0.34 1.7 0 0 Z " fill="#2A3D74" transform="translate(419,238)"/>
<path d="M0 0 C0.66 1.32 1.32 2.64 2 4 C2.38929688 3.52046875 2.77859375 3.0409375 3.1796875 2.546875 C5.52228893 0.55616649 7.08756881 0.4802426 10.125 0.25 C11.01445312 0.17265625 11.90390625 0.0953125 12.8203125 0.015625 C13.53960937 0.01046875 14.25890625 0.0053125 15 0 C16 1 16 1 16.1328125 3.03125 C16.13023437 3.8459375 16.12765625 4.660625 16.125 5.5 C16.12886719 6.72203125 16.12886719 6.72203125 16.1328125 7.96875 C16 10 16 10 15 11 C13.14712498 11.07226502 11.29166122 11.0838122 9.4375 11.0625 C8.42558594 11.05347656 7.41367187 11.04445312 6.37109375 11.03515625 C5.19740234 11.01775391 5.19740234 11.01775391 4 11 C3.34 9.68 2.68 8.36 2 7 C1.34 7 0.68 7 0 7 C0 4.69 0 2.38 0 0 Z " fill="#243C7D" transform="translate(391,237)"/>
<path d="M0 0 C2.12601055 1.78486002 3.35296246 3.72321282 5 6 C4.05125 6.433125 3.1025 6.86625 2.125 7.3125 C-1.20041937 8.79302201 -1.20041937 8.79302201 -3 12 C-3.33 10.68 -3.66 9.36 -4 8 C-9.94 7.01 -9.94 7.01 -16 6 C-16 5.34 -16 4.68 -16 4 C-16.99 4 -17.98 4 -19 4 C-19 3.34 -19 2.68 -19 2 C-16.9620493 1.46481117 -14.91940991 0.94745907 -12.875 0.4375 C-11.73804688 0.14746094 -10.60109375 -0.14257812 -9.4296875 -0.44140625 C-5.8624955 -1.02239538 -3.46703261 -0.98495245 0 0 Z " fill="#143676" transform="translate(295,238)"/>
<path d="M0 0 C0.33 0 0.66 0 1 0 C1.33 3.63 1.66 7.26 2 11 C2.66 11 3.32 11 4 11 C4.33 11.99 4.66 12.98 5 14 C5.99 13.67 6.98 13.34 8 13 C8 11.68 8 10.36 8 9 C11 10 11 10 13 13 C13.99 13.66 14.98 14.32 16 15 C15.01 15.33 14.02 15.66 13 16 C13 16.99 13 17.98 13 19 C13.66 19 14.32 19 15 19 C15 19.66 15 20.32 15 21 C17.97 21.33 20.94 21.66 24 22 C19.46998816 24.26500592 16.72719532 24.39572726 12 23 C5.64530847 20.07830274 2.13515548 16.68999364 -0.34375 10.1484375 C-0.5603125 9.43945312 -0.776875 8.73046875 -1 8 C-1.21527344 7.29617188 -1.43054688 6.59234375 -1.65234375 5.8671875 C-2.12054597 3.35257333 -1.29722904 2.13661254 0 0 Z " fill="#203B77" transform="translate(344,252)"/>
<path d="M0 0 C2.31 0.33 4.62 0.66 7 1 C7 1.66 7 2.32 7 3 C7.61875 3.309375 8.2375 3.61875 8.875 3.9375 C10.25 4.625 11.625 5.3125 13 6 C12.67 6.66 12.34 7.32 12 8 C11.34 8 10.68 8 10 8 C10 8.99 10 9.98 10 11 C10.66 11.66 11.32 12.32 12 13 C8.41640884 14.24047386 5.66660232 13.79708746 2 13 C1.34 12.67 0.68 12.34 0 12 C0 9.69 0 7.38 0 5 C-0.66 5 -1.32 5 -2 5 C-1.34 3.35 -0.68 1.7 0 0 Z " fill="#092D74" transform="translate(51,255)"/>
<path d="M0 0 C4.13937592 3.30015998 7.58662205 6.17324411 10 11 C6.92382812 11.29296875 6.92382812 11.29296875 3.84765625 11.5859375 C3.23792969 11.72257813 2.62820312 11.85921875 2 12 C1.67 12.66 1.34 13.32 1 14 C1.66 14.33 2.32 14.66 3 15 C3.625 17.5625 3.625 17.5625 4 20 C3.34 20.33 2.68 20.66 2 21 C1.72027344 20.49210937 1.44054687 19.98421875 1.15234375 19.4609375 C-1.89928595 14.22116174 -5.27424352 10.73775198 -10 7 C-10.66 6.34 -11.32 5.68 -12 5 C-8.0507432 5.55105909 -4.65079826 6.38935371 -1 8 C-0.67 5.36 -0.34 2.72 0 0 Z " fill="#24407C" transform="translate(98,211)"/>
<path d="M0 0 C0.66 0.66 1.32 1.32 2 2 C1.625 5.125 1.625 5.125 1 8 C1.99 8.33 2.98 8.66 4 9 C5.421875 10.9609375 5.421875 10.9609375 6.75 13.375 C7.19859375 14.16648438 7.6471875 14.95796875 8.109375 15.7734375 C9 18 9 18 8 21 C7.01 21 6.02 21 5 21 C4.67 21.99 4.34 22.98 4 24 C0.7661562 21.18342636 -0.66714367 19.32713231 -1 15 C-0.67 14.01 -0.34 13.02 0 12 C-0.515625 11.67 -1.03125 11.34 -1.5625 11 C-3.30536708 8.57514146 -3.12428665 7.77461588 -2.8125 4.875 C-2.544375 3.59625 -2.27625 2.3175 -2 1 C-1.34 0.67 -0.68 0.34 0 0 Z " fill="#022772" transform="translate(310,231)"/>
<path d="M0 0 C5.78461538 4.43076923 5.78461538 4.43076923 6.875 7.3125 C6.936875 8.1478125 6.936875 8.1478125 7 9 C6.01 9 5.02 9 4 9 C3.62875 8.0409375 3.62875 8.0409375 3.25 7.0625 C2.18437567 4.81258459 2.18437567 4.81258459 -0.125 4.25 C-0.74375 4.1675 -1.3625 4.085 -2 4 C-2 3.34 -2 2.68 -2 2 C-1.34 2 -0.68 2 0 2 C0 1.34 0 0.68 0 0 Z M-2 5 C-0.14223235 8.13498292 0.20140476 10.37471432 0 14 C-4.09003859 15.14982602 -8.03177051 15.11094256 -12.25 15.0625 C-12.99507813 15.05798828 -13.74015625 15.05347656 -14.5078125 15.04882812 C-16.3385764 15.03709246 -18.16929873 15.0191585 -20 15 C-21.33332095 12.3333581 -20.67102033 10.83319697 -20 8 C-19.01 8 -18.02 8 -17 8 C-17 8.99 -17 9.98 -17 11 C-12.38 11 -7.76 11 -3 11 C-3.33 9.68 -3.66 8.36 -4 7 C-4.66 6.67 -5.32 6.34 -6 6 C-4.68 5.67 -3.36 5.34 -2 5 Z " fill="#3D5386" transform="translate(371,239)"/>
<path d="M0 0 C1.33333333 2 2.66666667 4 4 6 C4.99 6.66 5.98 7.32 7 8 C3.25 9.125 3.25 9.125 1 8 C0.67 8.66 0.34 9.32 0 10 C0.66 10 1.32 10 2 10 C2.4125 10.45375 2.825 10.9075 3.25 11.375 C5.58139465 13.53986646 7.97828036 14.12705877 11 15 C10.67 15.66 10.34 16.32 10 17 C4.65155992 16.46515599 0.64203897 14.53309233 -4 12 C-4 11.34 -4 10.68 -4 10 C-4.66 10 -5.32 10 -6 10 C-7.5625 7.1875 -7.5625 7.1875 -9 4 C-8.67 3.01 -8.34 2.02 -8 1 C-8 1.66 -8 2.32 -8 3 C-7.34 3 -6.68 3 -6 3 C-6 3.66 -6 4.32 -6 5 C-2.37206002 3.13433512 -2.37206002 3.13433512 0 0 Z " fill="#1C3A77" transform="translate(451,259)"/>
<path d="M0 0 C0.33 0 0.66 0 1 0 C1.07347656 1.21236328 1.07347656 1.21236328 1.1484375 2.44921875 C1.22320312 3.51785156 1.29796875 4.58648437 1.375 5.6875 C1.44460937 6.74324219 1.51421875 7.79898438 1.5859375 8.88671875 C1.98760089 11.90677269 2.74069019 14.24078054 4 17 C4.66 17 5.32 17 6 17 C6 16.34 6 15.68 6 15 C6.66 15 7.32 15 8 15 C8 12.36 8 9.72 8 7 C8.33 7 8.66 7 9 7 C9.18175781 7.93972656 9.18175781 7.93972656 9.3671875 8.8984375 C9.53476563 9.71570313 9.70234375 10.53296875 9.875 11.375 C10.11863281 12.59316406 10.11863281 12.59316406 10.3671875 13.8359375 C10.86658932 16.18673923 10.86658932 16.18673923 13 18 C11.68 18 10.36 18 9 18 C8.731875 18.804375 8.46375 19.60875 8.1875 20.4375 C7.795625 21.283125 7.40375 22.12875 7 23 C6.01 23.33 5.02 23.66 4 24 C3.34 22.68 2.68 21.36 2 20 C1.34 20 0.68 20 0 20 C-2.05336642 13.83990074 -3.11897635 8.35692906 -1 2 C-0.67 1.34 -0.34 0.68 0 0 Z " fill="#35477F" transform="translate(227,247)"/>
<path d="M0 0 C1.64510941 0.00015915 3.29022379 0.00585551 4.93530273 0.01586914 C6.23164894 0.01799156 6.23164894 0.01799156 7.55418396 0.02015686 C10.32578941 0.025773 13.09731528 0.0383282 15.86889648 0.05102539 C17.74324428 0.05603831 19.61759334 0.06060158 21.49194336 0.06469727 C26.09679192 0.07574767 30.70158069 0.09302309 35.30639648 0.11352539 C35.30639648 2.42352539 35.30639648 4.73352539 35.30639648 7.11352539 C34.97639648 7.11352539 34.64639648 7.11352539 34.30639648 7.11352539 C34.30639648 5.13352539 34.30639648 3.15352539 34.30639648 1.11352539 C24.73639648 1.44352539 15.16639648 1.77352539 5.30639648 2.11352539 C5.30639648 3.76352539 5.30639648 5.41352539 5.30639648 7.11352539 C0.85139648 7.60852539 0.85139648 7.60852539 -3.69360352 8.11352539 C-4.07423572 5.78743969 -4.40630296 3.45297275 -4.69360352 1.11352539 C-3.69360352 0.11352539 -3.69360352 0.11352539 0 0 Z " fill="#031E5E" transform="translate(130.693603515625,223.886474609375)"/>
<path d="M0 0 C2 3 2 3 2 7 C2.33 6.34 2.66 5.68 3 5 C5.96175123 5.61277612 7.38058783 6.25372522 10 8 C10 8.66 10 9.32 10 10 C9.34 10 8.68 10 8 10 C8 12.31 8 14.62 8 17 C5.75 18.1875 5.75 18.1875 3 19 C0.6875 17.625 0.6875 17.625 -1 16 C-0.814375 15.175 -0.62875 14.35 -0.4375 13.5 C-0.06970207 10.55761657 -0.08702265 8.61470362 -0.5 5.75 C-1 2 -1 2 0 0 Z " fill="#03276F" transform="translate(270,247)"/>
<path d="M0 0 C0.33 0.66 0.66 1.32 1 2 C0.01 3.485 0.01 3.485 -1 5 C-1 6.32 -1 7.64 -1 9 C-0.01 8.34 0.98 7.68 2 7 C4.48887372 11.68493876 3.85687773 14.9444214 3 20 C2.34 20 1.68 20 1 20 C1 20.66 1 21.32 1 22 C0.34 22 -0.32 22 -1 22 C-1.33 22.66 -1.66 23.32 -2 24 C-4.28584898 17.44723293 -4.60594368 10.89598561 -5 4 C-4.01 4 -3.02 4 -2 4 C-2 3.01 -2 2.02 -2 1 C-1.34 0.67 -0.68 0.34 0 0 Z " fill="#04266C" transform="translate(232,242)"/>
<path d="M0 0 C0.99 0.33 1.98 0.66 3 1 C3 1.66 3 2.32 3 3 C3.66 3 4.32 3 5 3 C5.5345256 4.24420647 6.05208611 5.49570936 6.5625 6.75 C6.85253906 7.44609375 7.14257812 8.1421875 7.44140625 8.859375 C8.0874455 11.33510583 7.94043167 12.6360734 7 15 C6.01 15.495 6.01 15.495 5 16 C4.67 15.01 4.34 14.02 4 13 C3.01 13.495 3.01 13.495 2 14 C2 13.34 2 12.68 2 12 C1.01 12.33 0.02 12.66 -1 13 C-2.33525717 13.07973476 -3.67412083 13.10771338 -5.01171875 13.09765625 C-6.14770508 13.09282227 -6.14770508 13.09282227 -7.30664062 13.08789062 C-8.09232422 13.07951172 -8.87800781 13.07113281 -9.6875 13.0625 C-10.48478516 13.05798828 -11.28207031 13.05347656 -12.10351562 13.04882812 C-14.06904257 13.0370585 -16.03453085 13.01912348 -18 13 C-14.26034036 10.50689357 -12.70929359 10.9396739 -8.3125 11.375 C-7.13300781 11.48585937 -5.95351563 11.59671875 -4.73828125 11.7109375 C-3.83464844 11.80632812 -2.93101562 11.90171875 -2 12 C-2.33 10.68 -2.66 9.36 -3 8 C-2.34 7.67 -1.68 7.34 -1 7 C-1.33 5.35 -1.66 3.7 -2 2 C-1.34 2 -0.68 2 0 2 C0 1.34 0 0.68 0 0 Z " fill="#3A548E" transform="translate(469,239)"/>
<path d="M0 0 C1.9375 2.1875 1.9375 2.1875 3 4 C1.35 4 -0.3 4 -2 4 C-2 3.01 -2 2.02 -2 1 C-5.54518884 2.39759905 -5.54518884 2.39759905 -9 4 C-8.67 2.35 -8.34 0.7 -8 -1 C-9.96557842 -0.50027667 -11.93092315 0.00040227 -13.89453125 0.5078125 C-16 1 -16 1 -18.875 1.3125 C-21.28685071 1.81639555 -21.28685071 1.81639555 -22.3125 4.5625 C-22.539375 5.366875 -22.76625 6.17125 -23 7 C-20.89459074 9.31622777 -20.89459074 9.31622777 -17 11 C-19.97 11 -22.94 11 -26 11 C-26.33 10.34 -26.66 9.68 -27 9 C-24.17647059 1.23529412 -24.17647059 1.23529412 -21 -1 C-13.52697833 -4.30203283 -6.98019975 -3.83226653 0 0 Z " fill="#4A5D8C" transform="translate(217,239)"/>
<path d="M0 0 C3.3 0 6.6 0 10 0 C8.72520789 6.1778387 7.1079151 12.05567942 5 18 C4.67 18 4.34 18 4 18 C4 16.02 4 14.04 4 12 C4.66 12 5.32 12 6 12 C6 10.68 6 9.36 6 8 C5.34 8 4.68 8 4 8 C3.67 8.66 3.34 9.32 3 10 C2.34 9.01 1.68 8.02 1 7 C0.01 7 -0.98 7 -2 7 C-2.33 7.66 -2.66 8.32 -3 9 C-2.41321669 5.47930015 -1.64350079 3.28700157 0 0 Z " fill="#26417E" transform="translate(337,223)"/>
<path d="M0 0 C2.31 0 4.62 0 7 0 C7.33 1.65 7.66 3.3 8 5 C7.34 5 6.68 5 6 5 C6 5.66 6 6.32 6 7 C6.66 7.33 7.32 7.66 8 8 C5.25 14.875 5.25 14.875 1 17 C-0.22517308 11.33357449 -0.09228867 5.76291482 0 0 Z " fill="#032974" transform="translate(167,238)"/>
<path d="M0 0 C6.93 0.495 6.93 0.495 14 1 C13.01 2.65 12.02 4.3 11 6 C11 6.66 11 7.32 11 8 C6.21521178 8.09764874 1.72314313 7.77112541 -3 7 C-3 5.33333333 -3 3.66666667 -3 2 C-2.01 2 -1.02 2 0 2 C0 1.34 0 0.68 0 0 Z " fill="#03266B" transform="translate(236,265)"/>
<path d="M0 0 C1 2 1 2 1.4375 4.375 C1.87611663 6.98034251 1.87611663 6.98034251 3.0625 9.0625 C4 11 4 11 4 15 C4.33 15.99 4.66 16.98 5 18 C3.625 19.5 3.625 19.5 2 21 C1.34 21 0.68 21 0 21 C0 20.34 0 19.68 0 19 C-0.66 19 -1.32 19 -2 19 C-2 18.34 -2 17.68 -2 17 C-2.66 16.67 -3.32 16.34 -4 16 C-3.65697965 10.01488629 -3.17692157 5.24882694 0 0 Z " fill="#032775" transform="translate(445,243)"/>
<path d="M0 0 C5.75 -0.125 5.75 -0.125 8 1 C8 2.32 8 3.64 8 5 C7.360625 5.28875 6.72125 5.5775 6.0625 5.875 C3.84793921 6.82823451 3.84793921 6.82823451 3 9 C3.66 9 4.32 9 5 9 C5.33 9.99 5.66 10.98 6 12 C5.34 12 4.68 12 4 12 C4.474375 12.78375 4.94875 13.5675 5.4375 14.375 C8.26219879 19.12049397 8 22.53202319 8 28 C5.30191637 26.65095818 5.05489003 24.92572458 4.09643555 22.18579102 C3.87898682 21.52635498 3.66153809 20.86691895 3.4375 20.1875 C3.21425049 19.518396 2.99100098 18.84929199 2.76098633 18.15991211 C0.86085683 12.15766714 0.12899724 6.29741082 0 0 Z " fill="#072A71" transform="translate(303,225)"/>
<path d="M0 0 C1.32 0.66 2.64 1.32 4 2 C4 2.99 4 3.98 4 5 C2.68 4.67 1.36 4.34 0 4 C0 4.66 0 5.32 0 6 C-0.66 6 -1.32 6 -2 6 C-2 6.66 -2 7.32 -2 8 C-1.34 8 -0.68 8 0 8 C0.33 9.32 0.66 10.64 1 12 C-3.7952637 12 -4.67554084 11.01007087 -8.25 8 C-9.14203125 7.2575 -10.0340625 6.515 -10.953125 5.75 C-11.62859375 5.1725 -12.3040625 4.595 -13 4 C-10.10765685 3.17361624 -8.11257569 3 -5 3 C-4.67 2.34 -4.34 1.68 -4 1 C-2.68 1.33 -1.36 1.66 0 2 C0 1.34 0 0.68 0 0 Z " fill="#24427F" transform="translate(51,252)"/>
<path d="M0 0 C1.27350058 3.01009228 0.99687398 4.00781505 -0.25 7.125 C-2 10 -2 10 -5 12 C-5.99 11.67 -6.98 11.34 -8 11 C-7.34 11 -6.68 11 -6 11 C-6 9.68 -6 8.36 -6 7 C-8.64 6.67 -11.28 6.34 -14 6 C-13.360625 5.896875 -12.72125 5.79375 -12.0625 5.6875 C-11.381875 5.460625 -10.70125 5.23375 -10 5 C-9.67 4.01 -9.34 3.02 -9 2 C-5.82757352 0.68964993 -3.44118336 0 0 0 Z " fill="#233B76" transform="translate(301,261)"/>
<path d="M0 0 C1.45792884 -0.05399736 2.91642712 -0.09279177 4.375 -0.125 C5.18710937 -0.14820313 5.99921875 -0.17140625 6.8359375 -0.1953125 C9 0 9 0 11 2 C12.32392972 3.01241685 13.65599167 4.01439389 15 5 C13.68 5 12.36 5 11 5 C11 5.66 11 6.32 11 7 C7.37 7 3.74 7 0 7 C0.66 6.67 1.32 6.34 2 6 C2 5.34 2 4.68 2 4 C1.01 4.33 0.02 4.66 -1 5 C-0.67 3.35 -0.34 1.7 0 0 Z " fill="#03236A" transform="translate(357,267)"/>
<path d="M0 0 C0.625 2.8125 0.625 2.8125 1 6 C0.01 7.485 0.01 7.485 -1 9 C-1.66 8.67 -2.32 8.34 -3 8 C-4.66619446 7.9603287 -6.33391013 7.95615553 -8 8 C-8.66 5.69 -9.32 3.38 -10 1 C-6.21812119 -0.83691257 -4.05431692 -1.15837626 0 0 Z " fill="#01286F" transform="translate(109,222)"/>
<path d="M0 0 C0.99 0.33 1.98 0.66 3 1 C3 5.29 3 9.58 3 14 C1 12 1 12 0.875 9.375 C0.91625 8.59125 0.9575 7.8075 1 7 C0.01 7.33 -0.98 7.66 -2 8 C-2.33 8.99 -2.66 9.98 -3 11 C-3.99 10.67 -4.98 10.34 -6 10 C-6.33 10.66 -6.66 11.32 -7 12 C-8.35015859 7.94952424 -7.62084998 5.2079832 -7 1 C-6.34 1.66 -5.68 2.32 -5 3 C-4.236875 2.484375 -3.47375 1.96875 -2.6875 1.4375 C-1.800625 0.963125 -0.91375 0.48875 0 0 Z " fill="#052669" transform="translate(28,247)"/>
<path d="M0 0 C1.8125 0.0859375 1.8125 0.0859375 4 0.375 C5.0828125 0.51035156 5.0828125 0.51035156 6.1875 0.6484375 C8 1 8 1 9 2 C9.66 1.34 10.32 0.68 11 0 C10.67 3.63 10.34 7.26 10 11 C9.34 11 8.68 11 8 11 C7.34 10.34 6.68 9.68 6 9 C5.34 9.66 4.68 10.32 4 11 C3.28385417 9.27473958 2.56770833 7.54947917 1.8515625 5.82421875 C0.93193308 3.73466068 0.93193308 3.73466068 -1 1 C-0.67 0.67 -0.34 0.34 0 0 Z " fill="#153579" transform="translate(210,244)"/>
<path d="M0 0 C0 0.66 0 1.32 0 2 C-0.639375 1.855625 -1.27875 1.71125 -1.9375 1.5625 C-5.93844788 0.82763202 -9.95504896 0.41418889 -14 0 C-14.16687448 2.41645782 -14.16687448 2.41645782 -14 5 C-13.34 5.66 -12.68 6.32 -12 7 C-15.28976808 8.09658936 -16.71303767 7.79953138 -20 7 C-20 5.68 -20 4.36 -20 3 C-20.66 2.67 -21.32 2.34 -22 2 C-14.55111256 -2.63038949 -8.16476072 -3.26590429 0 0 Z " fill="#274482" transform="translate(433,238)"/>
<path d="M0 0 C4.75 0.875 4.75 0.875 7 2 C7 4.97 7 7.94 7 11 C3 9.66666667 -1 8.33333333 -5 7 C-4.34 6.67 -3.68 6.34 -3 6 C-3 5.34 -3 4.68 -3 4 C-2.34 4 -1.68 4 -1 4 C-0.67 2.68 -0.34 1.36 0 0 Z " fill="#022870" transform="translate(91,209)"/>
<path d="M0 0 C2.5393228 3.41831915 3.3636198 5.75776898 3 10 C1.68 10 0.36 10 -1 10 C-1 10.66 -1 11.32 -1 12 C-1.66 12 -2.32 12 -3 12 C-3 12.66 -3 13.32 -3 14 C-3.66 14 -4.32 14 -5 14 C-5.08114106 12.22992286 -5.13925505 10.45877902 -5.1875 8.6875 C-5.22230469 7.70136719 -5.25710937 6.71523437 -5.29296875 5.69921875 C-5 3 -5 3 -3.61328125 1.14453125 C-2 0 -2 0 0 0 Z " fill="#02276F" transform="translate(110,240)"/>
<path d="M0 0 C0.33 0.66 0.66 1.32 1 2 C0.67 2.66 0.34 3.32 0 4 C-0.66 4 -1.32 4 -2 4 C-2 4.66 -2 5.32 -2 6 C-7.67881725 8.43377882 -11.81430383 9.53324967 -18 9 C-18.66 8.34 -19.32 7.68 -20 7 C-18.68 6.67 -17.36 6.34 -16 6 C-16 5.01 -16 4.02 -16 3 C-7.42857143 2.71428571 -7.42857143 2.71428571 -4 5 C-3.896875 4.360625 -3.79375 3.72125 -3.6875 3.0625 C-3.460625 2.381875 -3.23375 1.70125 -3 1 C-2.01 0.67 -1.02 0.34 0 0 Z " fill="#24417C" transform="translate(437,267)"/>
<path d="M0 0 C3.93673644 1.31224548 6.22719294 2.91910327 9 6 C8.01 6.495 8.01 6.495 7 7 C7 6.34 7 5.68 7 5 C5.35 4.67 3.7 4.34 2 4 C1.67 5.32 1.34 6.64 1 8 C0.34 8 -0.32 8 -1 8 C-1 8.66 -1 9.32 -1 10 C-4 11 -4 11 -6.1875 10.0625 C-6.785625 9.711875 -7.38375 9.36125 -8 9 C-7.01 8.67 -6.02 8.34 -5 8 C-5.33 7.01 -5.66 6.02 -6 5 C-4.515 4.0409375 -4.515 4.0409375 -3 3.0625 C-2.01 2.381875 -1.02 1.70125 0 1 C0 0.67 0 0.34 0 0 Z " fill="#11347C" transform="translate(89,205)"/>
<path d="M0 0 C2.96909598 3.27301919 3.34354794 5.38065762 3.1875 9.75 C3.16042969 10.73484375 3.13335937 11.7196875 3.10546875 12.734375 C3.07066406 13.48203125 3.03585937 14.2296875 3 15 C-0.94647618 15.98844951 -4.27392964 15.96191905 -8.3125 15.5625 C-9.38113281 15.46066406 -10.44976562 15.35882813 -11.55078125 15.25390625 C-12.35902344 15.17011719 -13.16726563 15.08632813 -14 15 C-14 14.34 -14 13.68 -14 13 C-9.05 13 -4.1 13 1 13 C0.855625 11.55625 0.71125 10.1125 0.5625 8.625 C0.48128906 7.81289062 0.40007812 7.00078125 0.31640625 6.1640625 C0.10909886 3.95727195 0.10909886 3.95727195 -1 2 C-0.67 1.34 -0.34 0.68 0 0 Z " fill="#2E406F" transform="translate(300,244)"/>
<path d="M0 0 C2.64 1.98 5.28 3.96 8 6 C5.7272944 10.54541121 4.55343183 11.14145639 0 13 C-0.99 13 -1.98 13 -3 13 C-3 12.34 -3 11.68 -3 11 C-2.01 11 -1.02 11 0 11 C-0.33 10.01 -0.66 9.02 -1 8 C-0.34 7.01 0.32 6.02 1 5 C0.34 4.67 -0.32 4.34 -1 4 C-0.67 2.68 -0.34 1.36 0 0 Z " fill="#173576" transform="translate(86,280)"/>
<path d="M0 0 C0 1.32 0 2.64 0 4 C-0.66 4 -1.32 4 -2 4 C-2 4.66 -2 5.32 -2 6 C-4.64 6.33 -7.28 6.66 -10 7 C-10 6.01 -10 5.02 -10 4 C-11.65 4 -13.3 4 -15 4 C-14.38125 3.71125 -13.7625 3.4225 -13.125 3.125 C-10.86674235 2.06279958 -10.86674235 2.06279958 -9 0 C-2.53846154 -1.26923077 -2.53846154 -1.26923077 0 0 Z " fill="#223D7A" transform="translate(476,263)"/>
<path d="M0 0 C-0.66 1.98 -1.32 3.96 -2 6 C1.63 6 5.26 6 9 6 C8.67 6.99 8.34 7.98 8 9 C7.34 8.67 6.68 8.34 6 8 C1.02916876 7.60196365 1.02916876 7.60196365 -3.4375 9.5 C-3.953125 9.995 -4.46875 10.49 -5 11 C-5 9.68 -5 8.36 -5 7 C-5.33 6.34 -5.66 5.68 -6 5 C-7.65 5 -9.3 5 -11 5 C-4.74206349 -1.42261905 -4.74206349 -1.42261905 0 0 Z " fill="#324C80" transform="translate(457,238)"/>
<path d="M0 0 C1.65 0 3.3 0 5 0 C5 0.66 5 1.32 5 2 C6.65 2 8.3 2 10 2 C8.74458443 4.51083114 7.49936512 4.87125446 5 6 C5.66 7.65 6.32 9.3 7 11 C6.01 11 5.02 11 4 11 C3.67 10.34 3.34 9.68 3 9 C2.01 9 1.02 9 0 9 C0 8.01 0 7.02 0 6 C-0.66 5.67 -1.32 5.34 -2 5 C-1.34 3.35 -0.68 1.7 0 0 Z " fill="#052770" transform="translate(33,274)"/>
<path d="M0 0 C3.125 0.1875 3.125 0.1875 6.125 2.1875 C6.125 3.1775 6.125 4.1675 6.125 5.1875 C6.785 5.5175 7.445 5.8475 8.125 6.1875 C5.485 5.8575 2.845 5.5275 0.125 5.1875 C0.455 7.1675 0.785 9.1475 1.125 11.1875 C-1.875 10.1875 -1.875 10.1875 -3.875 7.1875 C-4.0625 4.0625 -4.0625 4.0625 -3.875 1.1875 C-2.875 0.1875 -2.875 0.1875 0 0 Z " fill="#304376" transform="translate(411.875,260.8125)"/>
<path d="M0 0 C0.66 0.33 1.32 0.66 2 1 C2 2.65 2 4.3 2 6 C3.32 6.66 4.64 7.32 6 8 C5.34 9.32 4.68 10.64 4 12 C2.00045254 12.04254356 -0.00041636 12.04080783 -2 12 C-2.33 11.67 -2.66 11.34 -3 11 C-3 8.66666667 -3 6.33333333 -3 4 C-3.33 3.01 -3.66 2.02 -4 1 C-2.68 1.33 -1.36 1.66 0 2 C0 1.34 0 0.68 0 0 Z " fill="#012772" transform="translate(196,261)"/>
<path d="M0 0 C2.97 0 5.94 0 9 0 C9 0.66 9 1.32 9 2 C8.01 2 7.02 2 6 2 C6 2.66 6 3.32 6 4 C7.32 4.33 8.64 4.66 10 5 C10 5.66 10 6.32 10 7 C11.11375 7.2475 12.2275 7.495 13.375 7.75 C17 9 17 9 18.5 10.9375 C19 13 19 13 18 16 C16.2925002 14.71937515 14.62626404 13.38232443 13 12 C13 11.34 13 10.68 13 10 C11.68 9.67 10.36 9.34 9 9 C9 8.34 9 7.68 9 7 C8.34 7 7.68 7 7 7 C7 6.34 7 5.68 7 5 C6.21625 4.731875 5.4325 4.46375 4.625 4.1875 C2 3 2 3 0 0 Z " fill="#394D80" transform="translate(54,268)"/>
<path d="M0 0 C3.125 -0.1875 3.125 -0.1875 6 0 C6 0.99 6 1.98 6 3 C7.98 3 9.96 3 12 3 C12 3.33 12 3.66 12 4 C10.865625 4.28875 9.73125 4.5775 8.5625 4.875 C7.386875 5.24625 6.21125 5.6175 5 6 C4.67 6.66 4.34 7.32 4 8 C1.36 8 -1.28 8 -4 8 C-3.34 7.34 -2.68 6.68 -2 6 C-2 5.01 -2 4.02 -2 3 C-1.34 2.01 -0.68 1.02 0 0 Z " fill="#214184" transform="translate(196,241)"/>
<path d="M0 0 C-0.33 0.66 -0.66 1.32 -1 2 C-0.34 2.33 0.32 2.66 1 3 C0.3125 5.375 0.3125 5.375 -1 8 C-3.625 9.3125 -3.625 9.3125 -6 10 C-7.80411967 7.24075815 -8.0127245 6.11027897 -7.625 2.75 C-7.41875 1.8425 -7.2125 0.935 -7 0 C-3.86650268 -1.04449911 -3.01031744 -0.93423645 0 0 Z " fill="#04286D" transform="translate(453,243)"/>
<path d="M0 0 C0.33 0 0.66 0 1 0 C1 3.96 1 7.92 1 12 C0.01 12.33 -0.98 12.66 -2 13 C-2 12.34 -2 11.68 -2 11 C-3.39412109 11.01740234 -3.39412109 11.01740234 -4.81640625 11.03515625 C-17.09490334 11.12478032 -17.09490334 11.12478032 -23 10 C-23 9.67 -23 9.34 -23 9 C-15.74 9 -8.48 9 -1 9 C-0.67 6.03 -0.34 3.06 0 0 Z " fill="#364A7E" transform="translate(378,248)"/>
<path d="M0 0 C18.07011686 1.04674457 18.07011686 1.04674457 24 5 C21.9375 6.1875 21.9375 6.1875 19 7 C17.37374791 6.33622364 15.75074954 5.65662477 14.1796875 4.87109375 C9.68853018 3.07624056 4.76716692 2.66536812 0 2 C0 1.34 0 0.68 0 0 Z " fill="#465384" transform="translate(63,199)"/>
<path d="M0 0 C0.66 0 1.32 0 2 0 C2.33 0.99 2.66 1.98 3 3 C2.67 3.66 2.34 4.32 2 5 C2.99 5.33 3.98 5.66 5 6 C4.67 6.66 4.34 7.32 4 8 C3.34 8 2.68 8 2 8 C1.773125 8.598125 1.54625 9.19625 1.3125 9.8125 C-0.33811133 12.56351888 -2.1972081 13.52484637 -5 15 C-5.33 14.01 -5.66 13.02 -6 12 C-5.01 11.34 -4.02 10.68 -3 10 C-2.39397335 7.63804589 -2.39397335 7.63804589 -2 5 C-1.36562656 3.3207762 -0.70710678 1.64991582 0 0 Z " fill="#183A7A" transform="translate(103,269)"/>
<path d="M0 0 C-0.33 0.99 -0.66 1.98 -1 3 C-3.0625 3.6875 -3.0625 3.6875 -5 4 C-5 3.01 -5 2.02 -5 1 C-7.64 1 -10.28 1 -13 1 C-13 1.66 -13 2.32 -13 3 C-15.64 3.66 -18.28 4.32 -21 5 C-21 5.99 -21 6.98 -21 8 C-21.66 8 -22.32 8 -23 8 C-22.67 6.68 -22.34 5.36 -22 4 C-21.34 4 -20.68 4 -20 4 C-20 3.34 -20 2.68 -20 2 C-13.29242787 -1.42514321 -7.2988455 -2.0430177 0 0 Z " fill="#405686" transform="translate(251,238)"/>
<path d="M0 0 C0 0.33 0 0.66 0 1 C-1.65 1.33 -3.3 1.66 -5 2 C-4.34 2.66 -3.68 3.32 -3 4 C-3.375 6.125 -3.375 6.125 -4 8 C-7.31832766 7.01347016 -8.76548627 6.31268497 -10.875 3.5 C-11.24625 2.675 -11.6175 1.85 -12 1 C-11 -1 -11 -1 -8.8125 -2.3125 C-4.98136437 -3.24899982 -3.28693625 -1.98744983 0 0 Z " fill="#23407C" transform="translate(284,266)"/>
<path d="M0 0 C1.65 1.65 3.3 3.3 5 5 C4.05125 5.433125 3.1025 5.86625 2.125 6.3125 C-1.20041937 7.79302201 -1.20041937 7.79302201 -3 11 C-3.33 9.68 -3.66 8.36 -4 7 C-5.65 6.67 -7.3 6.34 -9 6 C-7.03617993 4.49440461 -5.21736634 3.10868317 -3 2 C-2.01 1.34 -1.02 0.68 0 0 Z " fill="#264480" transform="translate(295,239)"/>
<path d="M0 0 C0.49628906 0.37511719 0.99257812 0.75023437 1.50390625 1.13671875 C2.52291016 1.90435547 2.52291016 1.90435547 3.5625 2.6875 C4.28566406 3.23277344 5.00882812 3.77804687 5.75390625 4.33984375 C7.80722704 5.85751564 9.89388218 7.30715855 12 8.75 C12.99 9.4925 13.98 10.235 15 11 C15 11.66 15 12.32 15 13 C15.99 13.33 16.98 13.66 18 14 C16.68 14.33 15.36 14.66 14 15 C14 14.01 14 13.02 14 12 C11.36 11.67 8.72 11.34 6 11 C5.7525 10.21625 5.505 9.4325 5.25 8.625 C3.84610901 5.67682892 2.99324263 5.0975223 0 4 C0 2.68 0 1.36 0 0 Z " fill="#325082" transform="translate(65,263)"/>
<path d="M0 0 C0.33 0 0.66 0 1 0 C1.33 4.95 1.66 9.9 2 15 C2.33 15 2.66 15 3 15 C3 20.28 3 25.56 3 31 C-0.3 30.67 -3.6 30.34 -7 30 C-7 29.67 -7 29.34 -7 29 C-4.69 29 -2.38 29 0 29 C0 19.43 0 9.86 0 0 Z " fill="#324677" transform="translate(261,243)"/>
<path d="M0 0 C3.3 0 6.6 0 10 0 C10.33 1.65 10.66 3.3 11 5 C6.23947038 6.97387813 3.03511899 7.0070238 -2 6 C-1.01 5.34 -0.02 4.68 1 4 C0.67 2.68 0.34 1.36 0 0 Z " fill="#042975" transform="translate(282,269)"/>
<path d="M0 0 C2 2 2 2 2 6 C0.60974609 6.18175781 0.60974609 6.18175781 -0.80859375 6.3671875 C-2.00613281 6.53476563 -3.20367187 6.70234375 -4.4375 6.875 C-6.22994141 7.11863281 -6.22994141 7.11863281 -8.05859375 7.3671875 C-9.51458984 7.68042969 -9.51458984 7.68042969 -11 8 C-11.33 8.66 -11.66 9.32 -12 10 C-11.01 10.33 -10.02 10.66 -9 11 C-9 11.33 -9 11.66 -9 12 C-10.98 12 -12.96 12 -15 12 C-15 11.34 -15 10.68 -15 10 C-14.34 10 -13.68 10 -13 10 C-13 9.34 -13 8.68 -13 8 C-14.32 7.34 -15.64 6.68 -17 6 C-17 5.67 -17 5.34 -17 5 C-11.06 5 -5.12 5 1 5 C0.67 3.35 0.34 1.7 0 0 Z " fill="#04205F" transform="translate(293,247)"/>
<path d="M0 0 C2.64 0.33 5.28 0.66 8 1 C7.01 1.495 7.01 1.495 6 2 C5.34786708 4.02463255 5.34786708 4.02463255 5 6 C4.34 6 3.68 6 3 6 C3.33 7.32 3.66 8.64 4 10 C-0.455 9.01 -0.455 9.01 -5 8 C-5 7.67 -5 7.34 -5 7 C-3.35 6.67 -1.7 6.34 0 6 C-0.99 5.01 -1.98 4.02 -3 3 C-2.01 2.67 -1.02 2.34 0 2 C0 1.34 0 0.68 0 0 Z " fill="#3A568E" transform="translate(425,252)"/>
<path d="M0 0 C1.0625 1.875 1.0625 1.875 2 4 C1 6 1 6 -1 7 C-2.75 8.25 -2.75 8.25 -4 10 C-3.77242269 12.16299211 -3.77242269 12.16299211 -3 14 C-3.99 14 -4.98 14 -6 14 C-7.97387813 9.23947038 -8.0070238 6.03511899 -7 1 C-6.34 2.32 -5.68 3.64 -5 5 C-4.67 4.34 -4.34 3.68 -4 3 C-3.34 3 -2.68 3 -2 3 C-1.67 2.34 -1.34 1.68 -1 1 C-0.67 0.67 -0.34 0.34 0 0 Z " fill="#2F4884" transform="translate(319,249)"/>
<path d="M0 0 C0 0.66 0 1.32 0 2 C-8.42857143 4.28571429 -8.42857143 4.28571429 -13 4 C-11.68 4.66 -10.36 5.32 -9 6 C-9.33 6.66 -9.66 7.32 -10 8 C-8.35 8 -6.7 8 -5 8 C-6.6875 9.1875 -6.6875 9.1875 -9 10 C-11.5625 8.625 -11.5625 8.625 -14 7 C-14.99 7 -15.98 7 -17 7 C-17 6.34 -17 5.68 -17 5 C-10.94571676 1.45881547 -7.19510272 -0.13575666 0 0 Z " fill="#4E618F" transform="translate(289,236)"/>
<path d="M0 0 C1.98 0 3.96 0 6 0 C6 1.32 6 2.64 6 4 C6.66 4 7.32 4 8 4 C8 3.34 8 2.68 8 2 C9.32 2 10.64 2 12 2 C11 4 10 6 9 8 C5.41209425 7.70100785 4.21833224 7.23013399 1.6875 4.5625 C0 2 0 2 0 0 Z " fill="#3E5485" transform="translate(27,222)"/>
<path d="M0 0 C1.77117188 0.12568359 1.77117188 0.12568359 3.578125 0.25390625 C5.13539497 0.35709884 6.6926879 0.4599453 8.25 0.5625 C9.41595703 0.64661133 9.41595703 0.64661133 10.60546875 0.73242188 C11.35957031 0.78076172 12.11367187 0.82910156 12.890625 0.87890625 C13.58188477 0.9260376 14.27314453 0.97316895 14.98535156 1.02172852 C17.14202039 0.99846827 18.92648323 0.56746609 21 0 C22.41534778 -0.06456879 23.83337689 -0.08611039 25.25 -0.0625 C27.10625 -0.0315625 27.10625 -0.0315625 29 0 C27.3660579 1.97915034 26.49140064 2.91584224 23.91870117 3.35644531 C23.13470947 3.34709961 22.35071777 3.33775391 21.54296875 3.328125 C20.24456055 3.32039063 20.24456055 3.32039063 18.91992188 3.3125 C18.01822266 3.291875 17.11652344 3.27125 16.1875 3.25 C15.29740234 3.24484375 14.40730469 3.2396875 13.49023438 3.234375 C8.89383206 3.17985874 4.51997583 2.92640827 0 2 C0 1.34 0 0.68 0 0 Z " fill="#485984" transform="translate(53,293)"/>
<path d="M0 0 C0.33 1.32 0.66 2.64 1 4 C1.99 4 2.98 4 4 4 C4.33 5.65 4.66 7.3 5 9 C2.75 10.1875 2.75 10.1875 0 11 C-2.3125 9.625 -2.3125 9.625 -4 8 C-3.40072174 4.64404172 -2.15377564 2.62198774 0 0 Z " fill="#1B3774" transform="translate(96,271)"/>
<path d="M0 0 C0.33 0 0.66 0 1 0 C1.12117187 0.62648437 1.24234375 1.25296875 1.3671875 1.8984375 C1.53476563 2.71570313 1.70234375 3.53296875 1.875 4.375 C2.11863281 5.59316406 2.11863281 5.59316406 2.3671875 6.8359375 C2.86658932 9.18673923 2.86658932 9.18673923 5 11 C3.68 11 2.36 11 1 11 C0.5978125 12.2065625 0.5978125 12.2065625 0.1875 13.4375 C-0.204375 14.283125 -0.59625 15.12875 -1 16 C-1.99 16.33 -2.98 16.66 -4 17 C-4.66 15.68 -5.32 14.36 -6 13 C-5.34 13 -4.68 13 -4 13 C-4 12.01 -4 11.02 -4 10 C-3.34 10 -2.68 10 -2 10 C-2 9.34 -2 8.68 -2 8 C-1.34 8 -0.68 8 0 8 C0 5.36 0 2.72 0 0 Z " fill="#274383" transform="translate(235,254)"/>
<path d="M0 0 C0.33 0 0.66 0 1 0 C1 13.2 1 26.4 1 40 C3.31 40 5.62 40 8 40 C8 40.33 8 40.66 8 41 C3.545 41.495 3.545 41.495 -1 42 C-0.67 28.14 -0.34 14.28 0 0 Z " fill="#09245C" transform="translate(143,232)"/>
<path d="M0 0 C2.31 0 4.62 0 7 0 C8 1 8 1 8.11352539 2.76586914 C8.10828857 3.51473389 8.10305176 4.26359863 8.09765625 5.03515625 C8.09443359 5.84404297 8.09121094 6.65292969 8.08789062 7.48632812 C8.07951172 8.33646484 8.07113281 9.18660156 8.0625 10.0625 C8.05798828 10.91650391 8.05347656 11.77050781 8.04882812 12.65039062 C8.03700373 14.76695663 8.01906769 16.88348685 8 19 C7.67 19 7.34 19 7 19 C6.67 13.06 6.34 7.12 6 1 C4.515 2.485 4.515 2.485 3 4 C2.67 4 2.34 4 2 4 C1.67 7.63 1.34 11.26 1 15 C0.67 15 0.34 15 0 15 C0 10.05 0 5.1 0 0 Z " fill="#042264" transform="translate(254,224)"/>
<path d="M0 0 C3.3 0 6.6 0 10 0 C10.22151549 1.79008467 10.42682213 3.58218162 10.625 5.375 C10.74101562 6.37273437 10.85703125 7.37046875 10.9765625 8.3984375 C10.98429687 9.25695312 10.99203125 10.11546875 11 11 C10.34 11.66 9.68 12.32 9 13 C8.67 9.7 8.34 6.4 8 3 C5.69 2.67 3.38 2.34 1 2 C1 7.61 1 13.22 1 19 C0.67 19 0.34 19 0 19 C0 12.73 0 6.46 0 0 Z " fill="#707CA1" transform="translate(253,222)"/>
<path d="M0 0 C-0.66 2.31 -1.32 4.62 -2 7 C-5.63 7 -9.26 7 -13 7 C-13 6.67 -13 6.34 -13 6 C-11.35 6 -9.7 6 -8 6 C-8 4.35 -8 2.7 -8 1 C-5.29120665 -0.35439668 -2.99066732 -0.06501451 0 0 Z " fill="#103378" transform="translate(144,225)"/>
<path d="M0 0 C2.475 0.99 2.475 0.99 5 2 C4.67 2.66 4.34 3.32 4 4 C4.66 4 5.32 4 6 4 C6 5.32 6 6.64 6 8 C4.68 8 3.36 8 2 8 C0.65835921 8.2981424 -0.67851173 8.62243192 -2 9 C-2.66 7.35 -3.32 5.7 -4 4 C-2.68 2.68 -1.36 1.36 0 0 Z " fill="#05266B" transform="translate(431,254)"/>
<path d="M0 0 C-4.53997871 3.97248137 -10.22159771 5.63278874 -16 7 C-16.33 8.32 -16.66 9.64 -17 11 C-17.99 10.67 -18.98 10.34 -20 10 C-15.47525593 1.70463588 -9.22476392 -0.65891171 0 0 Z " fill="#63749C" transform="translate(365,236)"/>
<path d="M0 0 C0 0.66 0 1.32 0 2 C1.65 2 3.3 2 5 2 C1.72698081 4.96909598 -0.38065762 5.34354794 -4.75 5.1875 C-6.22726563 5.14689453 -6.22726563 5.14689453 -7.734375 5.10546875 C-8.85585937 5.05326172 -8.85585937 5.05326172 -10 5 C-10.33 4.01 -10.66 3.02 -11 2 C-8.525 2.495 -8.525 2.495 -6 3 C-6 2.34 -6 1.68 -6 1 C-3 0 -3 0 0 0 Z " fill="#233A73" transform="translate(206,270)"/>
<path d="M0 0 C1.4606285 2.64738916 2 3.89448334 2 7 C1.01 7 0.02 7 -1 7 C-1 7.99 -1 8.98 -1 10 C-3.64 9.67 -6.28 9.34 -9 9 C-9 8.67 -9 8.34 -9 8 C-6.69 8 -4.38 8 -2 8 C-1.67 7.01 -1.34 6.02 -1 5 C-5.29 4.67 -9.58 4.34 -14 4 C-14 3.67 -14 3.34 -14 3 C-13.07316406 2.95101562 -12.14632812 2.90203125 -11.19140625 2.8515625 C-9.99386719 2.77679688 -8.79632813 2.70203125 -7.5625 2.625 C-6.36753906 2.55539063 -5.17257813 2.48578125 -3.94140625 2.4140625 C-2.97074219 2.27742187 -2.00007812 2.14078125 -1 2 C-0.67 1.34 -0.34 0.68 0 0 Z " fill="#485BA3" transform="translate(212,249)"/>
<path d="M0 0 C1.65 0 3.3 0 5 0 C4.814375 0.763125 4.62875 1.52625 4.4375 2.3125 C3.77180827 5.08967375 3.77180827 5.08967375 5 8 C0.545 8.495 0.545 8.495 -4 9 C-2.25 4.125 -2.25 4.125 0 3 C0 2.01 0 1.02 0 0 Z " fill="#0E2E73" transform="translate(181,239)"/>
<path d="M0 0 C0.5775 0.165 1.155 0.33 1.75 0.5 C4.26664369 1.14462031 4.26664369 1.14462031 8 1 C8 1.99 8 2.98 8 4 C8.66 4.33 9.32 4.66 10 5 C9.34 5.66 8.68 6.32 8 7 C4.875 6.625 4.875 6.625 2 6 C1.67 5.01 1.34 4.02 1 3 C0.34 3 -0.32 3 -1 3 C-0.67 2.01 -0.34 1.02 0 0 Z " fill="#022770" transform="translate(452,266)"/>
<path d="M0 0 C0.33 0 0.66 0 1 0 C1.33 3.63 1.66 7.26 2 11 C2.66 11 3.32 11 4 11 C4.12375 11.804375 4.2475 12.60875 4.375 13.4375 C4.684375 14.7059375 4.684375 14.7059375 5 16 C5.66 16.33 6.32 16.66 7 17 C7 17.66 7 18.32 7 19 C4.44127528 18.00225828 3.21686284 17.35661889 1.76953125 14.9765625 C1.45371094 14.20054687 1.13789063 13.42453125 0.8125 12.625 C0.32716797 11.46871094 0.32716797 11.46871094 -0.16796875 10.2890625 C-2.24243529 4.5818447 -2.24243529 4.5818447 -1.0625 1.75 C-0.711875 1.1725 -0.36125 0.595 0 0 Z " fill="#465F88" transform="translate(344,252)"/>
<path d="M0 0 C4.92127034 -0.16682272 8.50343896 -0.24828052 13 2 C9.11690718 5.64775386 6.28798182 6.58525633 1 7 C1 6.34 1 5.68 1 5 C1.66 5 2.32 5 3 5 C2.2236068 1.9254644 2.2236068 1.9254644 0 0 Z " fill="#3D578B" transform="translate(456,236)"/>
<path d="M0 0 C2.97 0 5.94 0 9 0 C8.01 1.98 7.02 3.96 6 6 C4.02 6 2.04 6 0 6 C-1.125 2.25 -1.125 2.25 0 0 Z " fill="#04276F" transform="translate(419,238)"/>
<path d="M0 0 C0.33 0 0.66 0 1 0 C1 6.93 1 13.86 1 21 C-1.64 21 -4.28 21 -7 21 C-7 20.34 -7 19.68 -7 19 C-5.02 19 -3.04 19 -1 19 C-0.67 12.73 -0.34 6.46 0 0 Z " fill="#56658E" transform="translate(174,253)"/>
<path d="M0 0 C3.11827017 0.43510747 5.82680849 0.92914893 8.75 2.125 C9.4925 2.41375 10.235 2.7025 11 3 C11.66 2.67 12.32 2.34 13 2 C13.33 3.32 13.66 4.64 14 6 C12.68 6.99 11.36 7.98 10 9 C8.70756532 7.8758824 7.41607925 6.75067408 6.125 5.625 C5.40570313 4.99851563 4.68640625 4.37203125 3.9453125 3.7265625 C2.5923402 2.52573166 1.2791655 1.2791655 0 0 Z " fill="#2C437E" transform="translate(86,216)"/>
<path d="M0 0 C1.26426661 3.79279982 0.40145184 5.34065352 -1 9 C-1.33 9.66 -1.66 10.32 -2 11 C-2.66 10.34 -3.32 9.68 -4 9 C-4.99 9 -5.98 9 -7 9 C-6.1875 5.5625 -6.1875 5.5625 -5 2 C-4.01 1.67 -3.02 1.34 -2 1 C-1.67 1.33 -1.34 1.66 -1 2 C-0.67 1.34 -0.34 0.68 0 0 Z " fill="#0B2C6F" transform="translate(103,266)"/>
<path d="M0 0 C1.9375 1.375 1.9375 1.375 2.75 3.8125 C2.9375 6.375 2.9375 6.375 1.9375 9.375 C0.6175 9.375 -0.7025 9.375 -2.0625 9.375 C-2.7225 6.405 -3.3825 3.435 -4.0625 0.375 C-2.0625 -0.625 -2.0625 -0.625 0 0 Z " fill="#213D7B" transform="translate(24.0625,257.625)"/>
<path d="M0 0 C1.33150674 2.66301349 1.41629144 5.18683111 1.71875 8.125 C1.91396548 10.08591934 1.91396548 10.08591934 3 12 C2.67 12.99 2.34 13.98 2 15 C1.34 15 0.68 15 0 15 C-1.9675865 11.69445468 -3.04140726 9.70392348 -2.8125 5.8125 C-2 3 -2 3 0 0 Z " fill="#4C6491" transform="translate(410,241)"/>
<path d="M0 0 C1.67225729 0.30404678 3.33753959 0.64628502 5 1 C8.00188475 1.09569767 10.99750402 1.05887247 14 1 C14.33 1.66 14.66 2.32 15 3 C10.64836386 5.24175195 7.7372085 5.01511611 3 4 C0.0625 2.9375 0.0625 2.9375 -2 2 C-1.34 1.34 -0.68 0.68 0 0 Z " fill="#293B73" transform="translate(235,271)"/>
<path d="M0 0 C1.65 0.99 3.3 1.98 5 3 C4.54917531 4.46067199 4.08906463 5.91848032 3.625 7.375 C3.36976563 8.18710937 3.11453125 8.99921875 2.8515625 9.8359375 C2 12 2 12 0 14 C0 13.34 0 12.68 0 12 C-1.32 11.67 -2.64 11.34 -4 11 C-2.35 11 -0.7 11 1 11 C0.84402344 10.28972656 0.68804687 9.57945312 0.52734375 8.84765625 C0.33269531 7.92855469 0.13804687 7.00945312 -0.0625 6.0625 C-0.25972656 5.14597656 -0.45695312 4.22945313 -0.66015625 3.28515625 C-0.77230469 2.53105469 -0.88445312 1.77695312 -1 1 C-0.67 0.67 -0.34 0.34 0 0 Z " fill="#29437E" transform="translate(329,260)"/>
<path d="M0 0 C2.375 0.25 2.375 0.25 5 1 C7.17831524 3.90442032 7.19715281 6.45124947 7 10 C6.4225 9.34 5.845 8.68 5.25 8 C3.00346023 5.55709077 3.00346023 5.55709077 -1 6 C-1.33 6.66 -1.66 7.32 -2 8 C-1.625 5.5625 -1.625 5.5625 -1 3 C-0.34 2.67 0.32 2.34 1 2 C0.67 1.34 0.34 0.68 0 0 Z " fill="#092767" transform="translate(316,254)"/>
<path d="M0 0 C0.66 0 1.32 0 2 0 C1.79503906 0.62003906 1.59007812 1.24007812 1.37890625 1.87890625 C-1.07871624 9.95731129 -1.67148621 17.60590627 -2 26 C-4.50382473 22.24426291 -4.12272124 19.55382891 -3.8125 15.25 C-3.78091797 14.5590625 -3.74933594 13.868125 -3.71679688 13.15625 C-3.39485359 8.19179121 -2.17241365 4.47364968 0 0 Z " fill="#3B5484" transform="translate(23,230)"/>
<path d="M0 0 C2.31 0 4.62 0 7 0 C7.33 0.99 7.66 1.98 8 3 C6.68 2.67 5.36 2.34 4 2 C3.34 3.32 2.68 4.64 2 6 C-0.31 5.34 -2.62 4.68 -5 4 C-4.67 3.34 -4.34 2.68 -4 2 C-3.01 2 -2.02 2 -1 2 C-0.67 1.34 -0.34 0.68 0 0 Z " fill="#03266C" transform="translate(43,251)"/>
<path d="M0 0 C0.66 0 1.32 0 2 0 C2 0.66 2 1.32 2 2 C3.32 2.66 4.64 3.32 6 4 C5.34 4.66 4.68 5.32 4 6 C1.875 5.625 1.875 5.625 0 5 C-0.144375 5.598125 -0.28875 6.19625 -0.4375 6.8125 C-0.8872439 8.56150404 -1.42892341 10.28677023 -2 12 C-2.66 12 -3.32 12 -4 12 C-4 11.34 -4 10.68 -4 10 C-4.66 9.67 -5.32 9.34 -6 9 C-5.38125 8.814375 -4.7625 8.62875 -4.125 8.4375 C-0.94397134 6.28562767 -0.80548053 3.62466237 0 0 Z " fill="#264182" transform="translate(39,242)"/>
<path d="M0 0 C2.96175123 0.61277612 4.38058783 1.25372522 7 3 C7 3.66 7 4.32 7 5 C6.34 5 5.68 5 5 5 C5 6.65 5 8.3 5 10 C4.34 9.67 3.68 9.34 3 9 C3 8.01 3 7.02 3 6 C2.34 6 1.68 6 1 6 C1 5.34 1 4.68 1 4 C0.34 4 -0.32 4 -1 4 C-0.67 2.68 -0.34 1.36 0 0 Z " fill="#0D347B" transform="translate(273,252)"/>
<path d="M0 0 C0.33 0 0.66 0 1 0 C1.433125 1.3921875 1.433125 1.3921875 1.875 2.8125 C2.8875 6.09791667 2.8875 6.09791667 5 9 C5 12 5 15 5 18 C1.99624635 16.49812318 1.86738789 14.37277281 0.8125 11.25 C0.26529297 9.67992187 0.26529297 9.67992187 -0.29296875 8.078125 C-1.01966071 4.91440531 -0.89622727 3.08256513 0 0 Z " fill="#3B5182" transform="translate(306,235)"/>
<path d="M0 0 C6.15234375 0.5859375 6.15234375 0.5859375 8 1 C8.33 1.66 8.66 2.32 9 3 C7.8553125 3.2165625 7.8553125 3.2165625 6.6875 3.4375 C3.91827092 3.9632594 3.91827092 3.9632594 1 5 C1.33 6.32 1.66 7.64 2 9 C-0.31 7.35 -2.62 5.7 -5 4 C-4.360625 3.71125 -3.72125 3.4225 -3.0625 3.125 C-0.84793921 2.17176549 -0.84793921 2.17176549 0 0 Z " fill="#29447F" transform="translate(427,239)"/>
<path d="M0 0 C0.66 0 1.32 0 2 0 C3.38232443 1.62626404 4.71937515 3.2925002 6 5 C5.34 5 4.68 5 4 5 C4.33 7.31 4.66 9.62 5 12 C4.34 12 3.68 12 3 12 C0.58314288 7.77050005 -0.34833144 4.87664009 0 0 Z " fill="#314B82" transform="translate(189,261)"/>
<path d="M0 0 C4.29 0 8.58 0 13 0 C12.34 1.32 11.68 2.64 11 4 C5.3095372 4.52934538 4.93702451 3.94961961 0 0 Z " fill="#062768" transform="translate(199,253)"/>
<path d="M0 0 C0.99 0.33 1.98 0.66 3 1 C2.34 2.65 1.68 4.3 1 6 C1.99 6 2.98 6 4 6 C3.34 9.63 2.68 13.26 2 17 C1.67 17 1.34 17 1 17 C0.92652344 16.07767578 0.92652344 16.07767578 0.8515625 15.13671875 C0.77679688 14.32847656 0.70203125 13.52023438 0.625 12.6875 C0.55539063 11.88699219 0.48578125 11.08648437 0.4140625 10.26171875 C0.10435574 7.72775559 0.10435574 7.72775559 -2 5 C-1.125 2.3125 -1.125 2.3125 0 0 Z " fill="#456196" transform="translate(252,242)"/>
<path d="M0 0 C0.66 0.66 1.32 1.32 2 2 C1.1875 3.9375 1.1875 3.9375 0 6 C-0.99 6.33 -1.98 6.66 -3 7 C-3 6.34 -3 5.68 -3 5 C-4.65 5.33 -6.3 5.66 -8 6 C-8 5.01 -8 4.02 -8 3 C-6.865625 2.690625 -5.73125 2.38125 -4.5625 2.0625 C-1.21224901 1.37075469 -1.21224901 1.37075469 0 0 Z " fill="#0E2361" transform="translate(377,260)"/>
<path d="M0 0 C0.33 3.3 0.66 6.6 1 10 C0.01 10.33 -0.98 10.66 -2 11 C-2 10.01 -2 9.02 -2 8 C-2.66 7.67 -3.32 7.34 -4 7 C-3.67 5.68 -3.34 4.36 -3 3 C-4.32 2.34 -5.64 1.68 -7 1 C-4.50935112 0.31292445 -2.62113708 0 0 0 Z " fill="#364A7B" transform="translate(188,237)"/>
<path d="M0 0 C3 1 3 1 4 3 C4.99 3.66 5.98 4.32 7 5 C6.34 5.66 5.68 6.32 5 7 C5.66 8.32 6.32 9.64 7 11 C6.01 11 5.02 11 4 11 C3.67 10.34 3.34 9.68 3 9 C2.34 9 1.68 9 1 9 C1.020625 8.071875 1.04125 7.14375 1.0625 6.1875 C1.15769604 2.97713989 1.15769604 2.97713989 0 0 Z " fill="#022871" transform="translate(50,282)"/>
<path d="M0 0 C0.33 0 0.66 0 1 0 C1.04898437 0.62648437 1.09796875 1.25296875 1.1484375 1.8984375 C1.22320312 2.71570313 1.29796875 3.53296875 1.375 4.375 C1.44460938 5.18710937 1.51421875 5.99921875 1.5859375 6.8359375 C1.82892588 9.20334191 1.82892588 9.20334191 4 11 C4.71927295 13.31765729 5.3909893 15.65095874 6 18 C2.27347086 14.78747488 0.59904659 11.63723512 -1 7 C-1.25 3.625 -1.25 3.625 -1 1 C-0.67 0.67 -0.34 0.34 0 0 Z " fill="#4A5B85" transform="translate(268,253)"/>
<path d="M0 0 C0.99 0 1.98 0 3 0 C3 0.66 3 1.32 3 2 C2.34 2 1.68 2 1 2 C1.33 2.99 1.66 3.98 2 5 C1.67 5.33 1.34 5.66 1 6 C-0.85772162 5.91015699 -2.71247985 5.75388139 -4.5625 5.5625 C-6.08037109 5.40974609 -6.08037109 5.40974609 -7.62890625 5.25390625 C-8.80259766 5.12822266 -8.80259766 5.12822266 -10 5 C-10 4.67 -10 4.34 -10 4 C-7.98177083 3.54427083 -5.96354167 3.08854167 -3.9453125 2.6328125 C-1.79280036 2.09525572 -1.79280036 2.09525572 0 0 Z " fill="#062362" transform="translate(368,239)"/>
<path d="M0 0 C2.31 0 4.62 0 7 0 C7.33 1.65 7.66 3.3 8 5 C6.35 5.33 4.7 5.66 3 6 C2.67 4.68 2.34 3.36 2 2 C1.34 2 0.68 2 0 2 C0 1.34 0 0.68 0 0 Z " fill="#173273" transform="translate(167,238)"/>
<path d="M0 0 C0.66 1.32 1.32 2.64 2 4 C2.4125 3.505 2.825 3.01 3.25 2.5 C5 1 5 1 9 1 C8.34 2.65 7.68 4.3 7 6 C4.69 6.33 2.38 6.66 0 7 C0 4.69 0 2.38 0 0 Z " fill="#384E80" transform="translate(391,237)"/>
<path d="M0 0 C0.99 0.33 1.98 0.66 3 1 C2.34 1 1.68 1 1 1 C1.33 2.32 1.66 3.64 2 5 C0.68 5 -0.64 5 -2 5 C-2 5.66 -2 6.32 -2 7 C-2.66 7 -3.32 7 -4 7 C-4 5.68 -4 4.36 -4 3 C-4.99 3 -5.98 3 -7 3 C-7.33 3.99 -7.66 4.98 -8 6 C-8.33 4.35 -8.66 2.7 -9 1 C-7.35 1 -5.7 1 -4 1 C-3.67 1.99 -3.34 2.98 -3 4 C-2.34 4 -1.68 4 -1 4 C-0.67 2.68 -0.34 1.36 0 0 Z " fill="#02246A" transform="translate(37,219)"/>
<path d="M0 0 C0.66 0.33 1.32 0.66 2 1 C2 1.66 2 2.32 2 3 C5.63 3 9.26 3 13 3 C12.67 3.99 12.34 4.98 12 6 C11.34 5.67 10.68 5.34 10 5 C5.02916876 4.60196365 5.02916876 4.60196365 0.5625 6.5 C0.046875 6.995 -0.46875 7.49 -1 8 C-1 4.88742431 -0.82638376 2.89234315 0 0 Z " fill="#4F689A" transform="translate(453,241)"/>
<path d="M0 0 C5.23685512 -0.43640459 9.06944421 0.02777768 14 2 C14 2.66 14 3.32 14 4 C13.29488281 3.83628906 12.58976562 3.67257813 11.86328125 3.50390625 C8.90341312 2.98300176 6.18938727 2.90133268 3.1875 2.9375 C2.21167969 2.94652344 1.23585938 2.95554688 0.23046875 2.96484375 C-0.50558594 2.97644531 -1.24164063 2.98804688 -2 3 C-1.34 2.01 -0.68 1.02 0 0 Z " fill="#637392" transform="translate(419,236)"/>
<path d="M0 0 C2.64 1.98 5.28 3.96 8 6 C7.34 7.32 6.68 8.64 6 10 C4 7 4 7 4 5 C2.35 4.67 0.7 4.34 -1 4 C-0.67 2.68 -0.34 1.36 0 0 Z " fill="#546191" transform="translate(86,280)"/>
<path d="M0 0 C6.58441558 1.46320346 6.58441558 1.46320346 8.5 3.9375 C9 6 9 6 8 9 C6.2925002 7.71937515 4.62626404 6.38232443 3 5 C3 4.34 3 3.68 3 3 C2.34 3 1.68 3 1 3 C0.67 2.01 0.34 1.02 0 0 Z " fill="#2E457B" transform="translate(64,275)"/>
<path d="M0 0 C0.66 0.99 1.32 1.98 2 3 C1.5390625 5.26171875 1.5390625 5.26171875 0.625 7.6875 C0.32851563 8.49574219 0.03203125 9.30398438 -0.2734375 10.13671875 C-0.51320313 10.75160156 -0.75296875 11.36648438 -1 12 C-1.99 11.67 -2.98 11.34 -4 11 C-4 8 -4 8 -2 6 C-1.28591666 4.01643517 -0.61382258 2.01684563 0 0 Z " fill="#42548A" transform="translate(327,251)"/>
<path d="M0 0 C0.33 1.32 0.66 2.64 1 4 C3.97 4.495 3.97 4.495 7 5 C7 5.33 7 5.66 7 6 C4.36 6 1.72 6 -1 6 C-1 6.66 -1 7.32 -1 8 C-1.66 8 -2.32 8 -3 8 C-2.74438677 5.6568787 -2.40729228 3.32156597 -2 1 C-1.34 0.67 -0.68 0.34 0 0 Z " fill="#2D4786" transform="translate(417,246)"/>
<path d="M0 0 C2 3 2 3 1.625 6.1875 C1.41875 7.115625 1.2125 8.04375 1 9 C-0.65 8.67 -2.3 8.34 -4 8 C-3.67 6.35 -3.34 4.7 -3 3 C-2.01 2.67 -1.02 2.34 0 2 C0 1.34 0 0.68 0 0 Z " fill="#0E2F75" transform="translate(108,222)"/>
<path d="M0 0 C0.66 0 1.32 0 2 0 C2.33 0.99 2.66 1.98 3 3 C5.01508358 3.73323796 5.01508358 3.73323796 7 4 C6.67 4.66 6.34 5.32 6 6 C4.68 6 3.36 6 2 6 C1.34 7.32 0.68 8.64 0 10 C-1.125 2.25 -1.125 2.25 0 0 Z " fill="#032468" transform="translate(411,241)"/>
<path d="M0 0 C-0.99 1.485 -0.99 1.485 -2 3 C-0.35 3 1.3 3 3 3 C3 3.33 3 3.66 3 4 C0.03 4 -2.94 4 -6 4 C-6 3.34 -6 2.68 -6 2 C-6.99 2 -7.98 2 -9 2 C-9 1.34 -9 0.68 -9 0 C-5.62182575 -0.84454356 -3.32534757 -1.10844919 0 0 Z " fill="#02246A" transform="translate(285,240)"/>
<path d="M0 0 C1.98 0.66 3.96 1.32 6 2 C5.67 2.99 5.34 3.98 5 5 C0.25 6.125 0.25 6.125 -2 5 C-1.34 3.35 -0.68 1.7 0 0 Z " fill="#032770" transform="translate(51,255)"/>
<path d="M0 0 C1.53760842 3.07521683 0.36599236 5.34675118 -0.4375 8.625 C-0.72496094 9.81351563 -1.01242187 11.00203125 -1.30859375 12.2265625 C-1.53675781 13.14179688 -1.76492188 14.05703125 -2 15 C-2.33 15 -2.66 15 -3 15 C-3.35050464 9.158256 -3.16727335 5.1468192 0 0 Z " fill="#30477B" transform="translate(445,243)"/>
<path d="M0 0 C2.96909598 3.27301919 3.34354794 5.38065762 3.1875 9.75 C3.14689453 11.22726563 3.14689453 11.22726563 3.10546875 12.734375 C3.07066406 13.48203125 3.03585937 14.2296875 3 15 C2.67 15 2.34 15 2 15 C1.86722656 14.31292969 1.73445313 13.62585938 1.59765625 12.91796875 C1.42105469 12.01691406 1.24445313 11.11585938 1.0625 10.1875 C0.88847656 9.29417969 0.71445312 8.40085938 0.53515625 7.48046875 C0.02258847 4.88602829 0.02258847 4.88602829 -1 2 C-0.67 1.34 -0.34 0.68 0 0 Z " fill="#5F72A7" transform="translate(300,244)"/>
<path d="M0 0 C1.98 1.65 3.96 3.3 6 5 C5.360625 5.103125 4.72125 5.20625 4.0625 5.3125 C3.381875 5.539375 2.70125 5.76625 2 6 C1.67 6.99 1.34 7.98 1 9 C-1.09230769 4.56923077 -1.09230769 4.56923077 -0.625 1.6875 C-0.41875 1.130625 -0.2125 0.57375 0 0 Z " fill="#1E3975" transform="translate(98,211)"/>
<path d="M0 0 C2.64 0.33 5.28 0.66 8 1 C8 1.33 8 1.66 8 2 C6.35 2.33 4.7 2.66 3 3 C2.67 3.99 2.34 4.98 2 6 C0.68 5.67 -0.64 5.34 -2 5 C-2 4.01 -2 3.02 -2 2 C-1.34 2 -0.68 2 0 2 C0 1.34 0 0.68 0 0 Z " fill="#1B397F" transform="translate(240,265)"/>
<path d="M0 0 C0 0.99 0 1.98 0 3 C-2.64 3.66 -5.28 4.32 -8 5 C-8 5.99 -8 6.98 -8 8 C-8.66 8 -9.32 8 -10 8 C-9.67 6.68 -9.34 5.36 -9 4 C-8.34 4 -7.68 4 -7 4 C-7 3.34 -7 2.68 -7 2 C-4.35261084 0.5393715 -3.10551666 0 0 0 Z " fill="#4E618C" transform="translate(238,238)"/>
<path d="M0 0 C0.99 0.33 1.98 0.66 3 1 C2.360625 1.268125 1.72125 1.53625 1.0625 1.8125 C-1.33131686 2.88667752 -1.33131686 2.88667752 -2 6 C-4.0625 6.6875 -4.0625 6.6875 -6 7 C-4.61990379 3.66476748 -3.15049348 1.81392049 0 0 Z " fill="#12357C" transform="translate(83,279)"/>
<path d="M0 0 C3.3 0.99 6.6 1.98 10 3 C9.67 3.66 9.34 4.32 9 5 C5.0507432 4.44894091 1.65079826 3.61064629 -2 2 C-1.34 1.34 -0.68 0.68 0 0 Z " fill="#40507F" transform="translate(452,271)"/>
<path d="M0 0 C3 1 3 1 5 4 C5.99 4.66 6.98 5.32 8 6 C7.01 6.33 6.02 6.66 5 7 C4.34 7.66 3.68 8.32 3 9 C1.76078698 6.02588876 0.69941596 3.14737182 0 0 Z " fill="#3B4F86" transform="translate(352,261)"/>
<path d="M0 0 C0.66 0 1.32 0 2 0 C2 0.99 2 1.98 2 3 C2.66 3.33 3.32 3.66 4 4 C3.01 4.33 2.02 4.66 1 5 C0.67 5.99 0.34 6.98 0 8 C0 7.34 0 6.68 0 6 C-0.66 6 -1.32 6 -2 6 C-1.125 1.125 -1.125 1.125 0 0 Z " fill="#38508D" transform="translate(175,245)"/>
<path d="M0 0 C3.3 0 6.6 0 10 0 C9.67 2.31 9.34 4.62 9 7 C8.67 7 8.34 7 8 7 C8 5.35 8 3.7 8 2 C3.34947128 1.73067479 3.34947128 1.73067479 -1 3 C-0.67 2.01 -0.34 1.02 0 0 Z " fill="#4C5889" transform="translate(337,223)"/>
<path d="M0 0 C-1.0625 1.5 -1.0625 1.5 -3 3 C-6.5625 3.3125 -6.5625 3.3125 -10 3 C-10.66 2.34 -11.32 1.68 -12 1 C-8.0186217 -0.3271261 -4.14954773 -0.06915913 0 0 Z " fill="#33457A" transform="translate(82,293)"/>
<path d="M0 0 C0.99 0.33 1.98 0.66 3 1 C2.34 2.32 1.68 3.64 1 5 C-0.98 5 -2.96 5 -5 5 C-5.33 4.01 -5.66 3.02 -6 2 C-4.02 2 -2.04 2 0 2 C0 1.34 0 0.68 0 0 Z " fill="#052566" transform="translate(199,268)"/>
<path d="M0 0 C6.625 0.75 6.625 0.75 10 3 C7.6875 4.125 7.6875 4.125 5 5 C4.01 4.34 3.02 3.68 2 3 C2.33 2.34 2.66 1.68 3 1 C2.01 0.67 1.02 0.34 0 0 Z " fill="#4C6192" transform="translate(77,201)"/>
<path d="M0 0 C3.35595828 0.59927826 5.37801226 1.84622436 8 4 C7.67 4.66 7.34 5.32 7 6 C5.68 5.67 4.36 5.34 3 5 C3 4.34 3 3.68 3 3 C2.01 2.67 1.02 2.34 0 2 C0 1.34 0 0.68 0 0 Z " fill="#344F82" transform="translate(44,278)"/>
<path d="M0 0 C0.33 0.66 0.66 1.32 1 2 C0.67 2.66 0.34 3.32 0 4 C-0.66 4 -1.32 4 -2 4 C-2 4.66 -2 5.32 -2 6 C-3.875 6.625 -3.875 6.625 -6 7 C-6.66 6.34 -7.32 5.68 -8 5 C-6.68 5 -5.36 5 -4 5 C-3.8453125 4.0409375 -3.8453125 4.0409375 -3.6875 3.0625 C-3.460625 2.381875 -3.23375 1.70125 -3 1 C-2.01 0.67 -1.02 0.34 0 0 Z " fill="#31467A" transform="translate(437,267)"/>
<path d="M0 0 C0.33 0.99 0.66 1.98 1 3 C0.34 3 -0.32 3 -1 3 C-1 3.66 -1 4.32 -1 5 C-1.66 5 -2.32 5 -3 5 C-3 5.66 -3 6.32 -3 7 C-4.65 7.33 -6.3 7.66 -8 8 C-8 7.34 -8 6.68 -8 6 C-7.01 5.67 -6.02 5.34 -5 5 C-5 4.34 -5 3.68 -5 3 C-4.34 3 -3.68 3 -3 3 C-1.37485532 1.54166642 -1.37485532 1.54166642 0 0 Z " fill="#4B5C87" transform="translate(376,266)"/>
<path d="M0 0 C0.99 0.33 1.98 0.66 3 1 C2.34 1.66 1.68 2.32 1 3 C1.99 3.99 2.98 4.98 4 6 C1.69 6.33 -0.62 6.66 -3 7 C-1.125 1.125 -1.125 1.125 0 0 Z " fill="#07256A" transform="translate(422,253)"/>
<path d="M0 0 C0.99 0.99 1.98 1.98 3 3 C-1.76052962 4.97387813 -4.96488101 5.0070238 -10 4 C-10 3.67 -10 3.34 -10 3 C-6.7 2.67 -3.4 2.34 0 2 C0 1.34 0 0.68 0 0 Z " fill="#3D517E" transform="translate(290,271)"/>
<path d="M0 0 C0.99 0 1.98 0 3 0 C1.75023244 3.65316671 1.32901247 4.78065836 -2 7 C-2.99 6.67 -3.98 6.34 -5 6 C-4.34 6 -3.68 6 -3 6 C-3 5.01 -3 4.02 -3 3 C-2.01 3 -1.02 3 0 3 C0 2.01 0 1.02 0 0 Z " fill="#4D5C8C" transform="translate(298,266)"/>
<path d="M0 0 C0.33 0 0.66 0 1 0 C1 2.97 1 5.94 1 9 C0.01 9 -0.98 9 -2 9 C-2.33 8.34 -2.66 7.68 -3 7 C-2.06421005 4.64018187 -1.06652192 2.30368736 0 0 Z " fill="#415688" transform="translate(102,259)"/>
<path d="M0 0 C0.33 0.99 0.66 1.98 1 3 C-1.91482778 3.80967438 -3.46113217 4.21845993 -6.3125 3.0625 C-6.869375 2.711875 -7.42625 2.36125 -8 2 C-8 1.67 -8 1.34 -8 1 C-2.25 0 -2.25 0 0 0 Z " fill="#2E447D" transform="translate(420,255)"/>
<path d="M0 0 C2.21399303 3.79541663 3.00980198 7.75629421 4 12 C0.90566277 9.46826954 -0.04150794 6.83396824 -1 3 C-0.67 2.01 -0.34 1.02 0 0 Z " fill="#5A6993" transform="translate(315,237)"/>
<path d="M0 0 C0.99 0.33 1.98 0.66 3 1 C3 1.66 3 2.32 3 3 C3.66 3 4.32 3 5 3 C4.67 3.66 4.34 4.32 4 5 C3.34 4.67 2.68 4.34 2 4 C1.67 4.99 1.34 5.98 1 7 C0.01 5.68 -0.98 4.36 -2 3 C-1.34 2.67 -0.68 2.34 0 2 C0 1.34 0 0.68 0 0 Z " fill="#2C4582" transform="translate(469,239)"/>
<path d="M0 0 C1.98 0 3.96 0 6 0 C6.33 1.32 6.66 2.64 7 4 C4.625 3.6875 4.625 3.6875 2 3 C1.34 2.01 0.68 1.02 0 0 Z " fill="#052773" transform="translate(427,243)"/>
<path d="M0 0 C0.33 0 0.66 0 1 0 C1.66 2.64 2.32 5.28 3 8 C0.03 7.505 0.03 7.505 -3 7 C-3 7.66 -3 8.32 -3 9 C-3.66 9 -4.32 9 -5 9 C-4.34 7.68 -3.68 6.36 -3 5 C-2.01 5 -1.02 5 0 5 C0 3.35 0 1.7 0 0 Z " fill="#355489" transform="translate(311,225)"/>
<path d="M0 0 C1.98 0 3.96 0 6 0 C5.42655063 2.86724686 5.1385485 3.8614515 3 6 C0 2.25 0 2.25 0 0 Z " fill="#425B90" transform="translate(27,222)"/>
<path d="M0 0 C2.1519437 3.22791555 2.20086443 4.28400809 2 8 C0.35 8.33 -1.3 8.66 -3 9 C-2.34 8.01 -1.68 7.02 -1 6 C-1.33 5.34 -1.66 4.68 -2 4 C-1.34 4 -0.68 4 0 4 C0 2.68 0 1.36 0 0 Z " fill="#152758" transform="translate(475,251)"/>
<path d="M0 0 C0 1.32 0 2.64 0 4 C-2.64 4 -5.28 4 -8 4 C-4.5 0 -4.5 0 0 0 Z " fill="#061E5C" transform="translate(200,245)"/>
<path d="M0 0 C1.75 1.4375 1.75 1.4375 3 3 C2.67 3.66 2.34 4.32 2 5 C0.02 4.34 -1.96 3.68 -4 3 C-4 2.34 -4 1.68 -4 1 C-2.1875 0.3125 -2.1875 0.3125 0 0 Z " fill="#0F3176" transform="translate(337,232)"/>
<path d="M0 0 C2.03144641 0.93446535 4.03533587 1.93224776 6 3 C3.2780754 4.3609623 1.8168043 3.70366248 -1.125 3.0625 C-2.03507812 2.86785156 -2.94515625 2.67320312 -3.8828125 2.47265625 C-4.58148438 2.31667969 -5.28015625 2.16070312 -6 2 C-5.38125 1.855625 -4.7625 1.71125 -4.125 1.5625 C-1.96741678 1.06847775 -1.96741678 1.06847775 0 0 Z " fill="#324B7D" transform="translate(70,208)"/>
<path d="M0 0 C2.64 0.66 5.28 1.32 8 2 C7.01 2.495 7.01 2.495 6 3 C5.67 3.66 5.34 4.32 5 5 C3.0625 4.1875 3.0625 4.1875 1 3 C0.67 2.01 0.34 1.02 0 0 Z " fill="#45598B" transform="translate(52,282)"/>
<path d="M0 0 C-2.76223278 2.76223278 -5.20706617 2.57856291 -9 3 C-9 2.34 -9 1.68 -9 1 C-3.375 -1.125 -3.375 -1.125 0 0 Z " fill="#667194" transform="translate(250,273)"/>
<path d="M0 0 C1.65 0 3.3 0 5 0 C4.67 1.32 4.34 2.64 4 4 C2.35 3.67 0.7 3.34 -1 3 C-0.67 2.01 -0.34 1.02 0 0 Z " fill="#0D2C6A" transform="translate(467,263)"/>
<path d="M0 0 C0.66 0 1.32 0 2 0 C2 0.66 2 1.32 2 2 C2.99 2 3.98 2 5 2 C5.33 2.99 5.66 3.98 6 5 C2 5 2 5 0.25 3.5 C-0.1625 3.005 -0.575 2.51 -1 2 C-0.67 1.34 -0.34 0.68 0 0 Z " fill="#344C82" transform="translate(46,259)"/>
<path d="M0 0 C2.91517292 1.07401108 4.77810176 1.77810176 7 4 C4.625 4.625 4.625 4.625 2 5 C1.34 4.34 0.68 3.68 0 3 C0 2.01 0 1.02 0 0 Z " fill="#042469" transform="translate(273,242)"/>
<path d="M0 0 C0.66 0 1.32 0 2 0 C2 0.66 2 1.32 2 2 C3.32 2.66 4.64 3.32 6 4 C5.34 4.66 4.68 5.32 4 6 C3.67 5.01 3.34 4.02 3 3 C2.01 3 1.02 3 0 3 C-0.33 3.66 -0.66 4.32 -1 5 C-0.67 3.35 -0.34 1.7 0 0 Z " fill="#334881" transform="translate(39,242)"/>
<path d="M0 0 C1.65 0 3.3 0 5 0 C4.34 0.66 3.68 1.32 3 2 C2.30251417 3.31747324 1.63040043 4.64914193 1 6 C0.01 5.67 -0.98 5.34 -2 5 C-1.34 3.35 -0.68 1.7 0 0 Z " fill="#022A78" transform="translate(399,240)"/>
<path d="M0 0 C1.4540625 0.0309375 1.4540625 0.0309375 2.9375 0.0625 C1.6175 0.3925 0.2975 0.7225 -1.0625 1.0625 C-0.835625 1.660625 -0.60875 2.25875 -0.375 2.875 C-0.271875 3.596875 -0.16875 4.31875 -0.0625 5.0625 C-1.5 6.8125 -1.5 6.8125 -3.0625 8.0625 C-3.44313221 5.7364143 -3.77519945 3.40194736 -4.0625 1.0625 C-3.0625 0.0625 -3.0625 0.0625 0 0 Z " fill="#203170" transform="translate(130.0625,223.9375)"/>
<path d="M0 0 C0.66 0.33 1.32 0.66 2 1 C1.01 2.98 0.02 4.96 -1 7 C-2.32 6.67 -3.64 6.34 -5 6 C-3.35 4.02 -1.7 2.04 0 0 Z " fill="#4F6A8F" transform="translate(33,213)"/>
<path d="M0 0 C0.99 0 1.98 0 3 0 C2.75 1.875 2.75 1.875 2 4 C-0.0625 5.25 -0.0625 5.25 -2 6 C-2.33 5.01 -2.66 4.02 -3 3 C-2.01 2.34 -1.02 1.68 0 1 C0 0.67 0 0.34 0 0 Z " fill="#3F5080" transform="translate(100,278)"/>
<path d="M0 0 C0.66 0.33 1.32 0.66 2 1 C2 1.66 2 2.32 2 3 C2.66 3 3.32 3 4 3 C4 3.66 4 4.32 4 5 C2.68 5 1.36 5 0 5 C0 4.34 0 3.68 0 3 C-1.32 3.33 -2.64 3.66 -4 4 C-3.67 3.34 -3.34 2.68 -3 2 C-2.01 2 -1.02 2 0 2 C0 1.34 0 0.68 0 0 Z " fill="#2C4580" transform="translate(38,271)"/>
<path d="M0 0 C0.33 1.32 0.66 2.64 1 4 C0.34 4 -0.32 4 -1 4 C-1 3.34 -1 2.68 -1 2 C-2.65 2.33 -4.3 2.66 -6 3 C-6.33 2.34 -6.66 1.68 -7 1 C-4.53721199 -0.231394 -2.7204945 -0.07159196 0 0 Z " fill="#183679" transform="translate(207,268)"/>
<path d="M0 0 C0.66 0 1.32 0 2 0 C2.66 2.64 3.32 5.28 4 8 C3.01 8 2.02 8 1 8 C0.67 5.36 0.34 2.72 0 0 Z " fill="#022674" transform="translate(104,266)"/>
<path d="M0 0 C2 3 2 3 4 6 C4.99 6.66 5.98 7.32 7 8 C5.68 8.33 4.36 8.66 3 9 C0.70620251 5.55930376 0 4.27709699 0 0 Z " fill="#3A5084" transform="translate(451,259)"/>
<path d="M0 0 C1.51400391 0.01740234 1.51400391 0.01740234 3.05859375 0.03515625 C4.07050781 0.04417969 5.08242188 0.05320312 6.125 0.0625 C7.29869141 0.07990234 7.29869141 0.07990234 8.49609375 0.09765625 C8.49609375 0.42765625 8.49609375 0.75765625 8.49609375 1.09765625 C7.86960937 1.13503906 7.243125 1.17242187 6.59765625 1.2109375 C5.78039062 1.27667969 4.963125 1.34242188 4.12109375 1.41015625 C2.90292969 1.49716797 2.90292969 1.49716797 1.66015625 1.5859375 C-0.88311963 1.92756153 -0.88311963 1.92756153 -2.50390625 5.09765625 C-3.06640625 3.16015625 -3.06640625 3.16015625 -3.50390625 1.09765625 C-2.50390625 0.09765625 -2.50390625 0.09765625 0 0 Z " fill="#021E62" transform="translate(452.50390625,256.90234375)"/>
<path d="M0 0 C0.99 0 1.98 0 3 0 C3 0.99 3 1.98 3 3 C2.01 2.67 1.02 2.34 0 2 C0 1.34 0 0.68 0 0 Z M0 3 C0 6 0 6 -1 8 C-1.33 7.01 -1.66 6.02 -2 5 C-2.66 4.67 -3.32 4.34 -4 4 C-2.68 3.67 -1.36 3.34 0 3 Z " fill="#304E89" transform="translate(369,241)"/>
<path d="M0 0 C0.33 0.99 0.66 1.98 1 3 C1.99 3 2.98 3 4 3 C4 3.99 4 4.98 4 6 C1.03 5.505 1.03 5.505 -2 5 C-1.125 1.125 -1.125 1.125 0 0 Z " fill="#082565" transform="translate(25,231)"/>
<path d="M0 0 C3.93673644 1.31224548 6.22719294 2.91910327 9 6 C8.01 6.495 8.01 6.495 7 7 C7 6.34 7 5.68 7 5 C5.5459375 4.5978125 5.5459375 4.5978125 4.0625 4.1875 C3.051875 3.795625 2.04125 3.40375 1 3 C0.67 2.01 0.34 1.02 0 0 Z " fill="#4A5B88" transform="translate(89,205)"/>
<path d="M0 0 C0 0.66 0 1.32 0 2 C-5.75 1.25 -5.75 1.25 -8 -1 C-4.37673261 -2.2077558 -3.35853631 -1.54311128 0 0 Z " fill="#07246B" transform="translate(67,202)"/>
<path d="M0 0 C1.32 0.66 2.64 1.32 4 2 C2.02 3.32 0.04 4.64 -2 6 C-1.125 1.125 -1.125 1.125 0 0 Z " fill="#0A2B6C" transform="translate(80,277)"/>
<path d="M0 0 C1.98 0 3.96 0 6 0 C6 0.66 6 1.32 6 2 C3.69 2.33 1.38 2.66 -1 3 C-0.67 2.01 -0.34 1.02 0 0 Z " fill="#062170" transform="translate(467,269)"/>
<path d="M0 0 C0.99 0 1.98 0 3 0 C3.33 1.65 3.66 3.3 4 5 C1.5625 4.625 1.5625 4.625 -1 4 C-1.33 3.34 -1.66 2.68 -2 2 C-1.34 2 -0.68 2 0 2 C0 1.34 0 0.68 0 0 Z " fill="#10347A" transform="translate(248,268)"/>
<path d="M0 0 C0.66 0 1.32 0 2 0 C2 0.66 2 1.32 2 2 C2.61875 2.309375 3.2375 2.61875 3.875 2.9375 C5.25 3.625 6.625 4.3125 8 5 C7.67 5.66 7.34 6.32 7 7 C5.68 6.34 4.36 5.68 3 5 C3 4.34 3 3.68 3 3 C2.34 3 1.68 3 1 3 C0.67 2.01 0.34 1.02 0 0 Z " fill="#455689" transform="translate(56,256)"/>
<path d="M0 0 C1.98 0.495 1.98 0.495 4 1 C4 2.32 4 3.64 4 5 C1.525 4.01 1.525 4.01 -1 3 C-0.67 2.01 -0.34 1.02 0 0 Z " fill="#0D2E75" transform="translate(282,254)"/>
<path d="M0 0 C3 0 3 0 5 1 C4.67 1.99 4.34 2.98 4 4 C1.9375 4.6875 1.9375 4.6875 0 5 C0 3.33333333 0 1.66666667 0 0 Z " fill="#03216A" transform="translate(235,243)"/>
<path d="" fill="#000000" transform="translate(0,0)"/>
</svg>